<svg xmlns="http://www.w3.org/2000/svg" width="693.511" height="600" viewBox="0 0 693.511 600"><defs><style>.a{opacity:0.51;}.b{mix-blend-mode:lighten;isolation:isolate;}.c{fill:#9e2ae5;}</style></defs><g class="a" transform="translate(0)"><g class="b" transform="translate(0)"><path class="c" d="M321.93,218.022V158.335l51.69-29.843,51.69,29.843v59.687l-51.69,29.843Z" transform="translate(268.202 352.135)"/><path class="c" d="M354.013,218.022V158.335l51.69-29.843,51.69,29.843v59.687L405.7,247.865Z" transform="translate(120.809 352.135)"/><path class="c" d="M386.1,218.022V158.335l51.69-29.843,51.69,29.843v59.687l-51.69,29.843Z" transform="translate(-26.583 352.135)"/><path class="c" d="M418.181,218.022V158.335l51.69-29.843,51.69,29.843v59.687l-51.69,29.843Z" transform="translate(-173.976 352.135)"/><path class="c" d="M450.264,218.022V158.335l51.69-29.843,51.69,29.843v59.687l-51.69,29.843Z" transform="translate(-321.368 352.135)"/><path class="c" d="M482.348,218.022V158.335l51.69-29.843,51.69,29.843v59.687l-51.69,29.843Z" transform="translate(-468.76 352.135)"/><path class="c" d="M370.239,189.5V129.816l51.69-29.843,51.69,29.843V189.5l-51.69,29.843Z" transform="translate(46.266 278.157)"/><path class="c" d="M402.323,189.5V129.816l51.69-29.843,51.69,29.843V189.5l-51.69,29.843Z" transform="translate(-101.126 278.157)"/><path class="c" d="M434.407,189.5V129.816L486.1,99.973l51.69,29.843V189.5L486.1,219.346Z" transform="translate(-248.519 278.157)"/><path class="c" d="M466.491,189.5V129.816l51.69-29.843,51.69,29.843V189.5l-51.69,29.843Z" transform="translate(-395.911 278.157)"/><path class="c" d="M498.574,103.992l6.961-4.019,51.69,29.843V189.5l-51.69,29.843-6.961-4.019Z" transform="translate(-498.574 278.157)"/><path class="c" d="M418.181,161.6V101.912l51.69-29.843,51.69,29.843V161.6l-51.69,29.843Z" transform="translate(-173.976 205.774)"/><path class="c" d="M450.264,161.6V101.912l51.69-29.843,51.69,29.843V161.6l-51.69,29.843Z" transform="translate(-321.368 205.774)"/><path class="c" d="M482.348,161.6V101.912l51.69-29.843,51.69,29.843V161.6l-51.69,29.843Z" transform="translate(-468.76 205.774)"/><path class="c" d="M434.407,133.08V73.393L486.1,43.55l51.69,29.843V133.08L486.1,162.923Z" transform="translate(-248.519 131.797)"/><path class="c" d="M466.491,133.08V73.393l51.69-29.843,51.69,29.843V133.08l-51.69,29.843Z" transform="translate(-395.911 131.797)"/><path class="c" d="M498.574,47.569l6.961-4.019,51.69,29.843V133.08l-51.69,29.843-6.961-4.019Z" transform="translate(-498.574 131.797)"/><path class="c" d="M418.181,105.176V45.489l51.69-29.843,51.69,29.843v59.686l-51.69,29.843Z" transform="translate(-173.976 59.413)"/><path class="c" d="M450.264,105.176V45.489l51.69-29.843,51.69,29.843v59.686l-51.69,29.843Z" transform="translate(-321.368 59.413)"/><path class="c" d="M482.348,105.176V45.489l51.69-29.843,51.69,29.843v59.686l-51.69,29.843Z" transform="translate(-468.76 59.413)"/><path class="c" d="M533.62-5.239l4.167,2.406V56.853L486.1,86.7l-51.69-29.843V-2.833l4.167-2.406Z" transform="translate(-248.519 5.239)"/><path class="c" d="M565.7-5.239l4.167,2.406V56.853L518.181,86.7l-51.69-29.843V-2.833l4.167-2.406Z" transform="translate(-395.911 5.239)"/><path class="c" d="M498.574-5.239h54.484l4.167,2.406V56.853L505.536,86.7l-6.961-4.019Z" transform="translate(-498.574 5.239)"/></g></g></svg>