<svg xmlns="http://www.w3.org/2000/svg" width="47.043" height="40.291" viewBox="0 0 47.043 40.291"><defs><style>.a{fill:#901cd8;}.b{fill:#fff;}</style></defs><g transform="translate(-2563.945 -370.561)"><path class="a" d="M2588.768,401.57V406.6h4.616v.9h12.169v2.591H2593.4v.764H2581.69v-.773h-12.067V407.5h12.067v-1.083h4.8V401.57h-11.267c-17.353-2.115-13.227-25.681,2.552-23.438,4.409-9.978,17.869-10.21,21.891,0,12.969-1.109,17.095,21.84,0,23.438Z" transform="translate(0 0)"/><g transform="translate(2565.907 387.5)"><path class="b" d="M2597.738,490a.523.523,0,0,1,.3-.1.659.659,0,0,1,.445.169.531.531,0,0,1,.2.418.662.662,0,0,1-.054.24l-1.46,3.276a.59.59,0,0,1-.258.3.74.74,0,0,1-.752,0,.6.6,0,0,1-.253-.3l-.952-2.216-.917,2.216a.6.6,0,0,1-.248.3.726.726,0,0,1-.383.1.757.757,0,0,1-.383-.1.593.593,0,0,1-.258-.3l-1.451-3.276a.611.611,0,0,1-.053-.24.516.516,0,0,1,.209-.418.733.733,0,0,1,.476-.169.57.57,0,0,1,.324.1.628.628,0,0,1,.228.285l.952,2.394.97-2.377a.637.637,0,0,1,.236-.289.61.61,0,0,1,.343-.1.651.651,0,0,1,.347.1.6.6,0,0,1,.24.294l.988,2.377.943-2.394A.639.639,0,0,1,2597.738,490Z" transform="translate(-2591.258 -488.72)"/><path class="b" d="M2628.919,490a.529.529,0,0,1,.3-.1.659.659,0,0,1,.444.169.53.53,0,0,1,.2.418.645.645,0,0,1-.053.24l-1.459,3.276a.6.6,0,0,1-.258.3.74.74,0,0,1-.374.1.729.729,0,0,1-.378-.1.6.6,0,0,1-.254-.3l-.953-2.216-.916,2.216a.6.6,0,0,1-.25.3.724.724,0,0,1-.383.1.753.753,0,0,1-.383-.1.588.588,0,0,1-.258-.3l-1.451-3.276a.608.608,0,0,1-.054-.24.519.519,0,0,1,.21-.418.735.735,0,0,1,.475-.169.574.574,0,0,1,.326.1.63.63,0,0,1,.227.285l.952,2.394.97-2.377a.64.64,0,0,1,.236-.289.614.614,0,0,1,.343-.1.656.656,0,0,1,.348.1.6.6,0,0,1,.24.294l.988,2.377.943-2.394A.651.651,0,0,1,2628.919,490Z" transform="translate(-2614.759 -488.72)"/><path class="b" d="M2660.1,490a.526.526,0,0,1,.3-.1.663.663,0,0,1,.446.169.534.534,0,0,1,.2.418.652.652,0,0,1-.054.24l-1.46,3.276a.587.587,0,0,1-.258.3.741.741,0,0,1-.373.1.728.728,0,0,1-.378-.1.6.6,0,0,1-.254-.3l-.952-2.216-.917,2.216a.6.6,0,0,1-.25.3.722.722,0,0,1-.382.1.75.75,0,0,1-.383-.1.593.593,0,0,1-.259-.3l-1.451-3.276a.623.623,0,0,1-.053-.24.519.519,0,0,1,.209-.418.735.735,0,0,1,.476-.169.577.577,0,0,1,.326.1.629.629,0,0,1,.226.285l.952,2.394.97-2.377a.64.64,0,0,1,.235-.289.613.613,0,0,1,.343-.1.65.65,0,0,1,.347.1.589.589,0,0,1,.24.294l.988,2.377.944-2.394A.642.642,0,0,1,2660.1,490Z" transform="translate(-2638.26 -488.72)"/><path class="b" d="M2684.657,503.286a.809.809,0,0,1,0-1.095.785.785,0,0,1,1.086,0,.808.808,0,0,1,0,1.095.784.784,0,0,1-1.086,0Z" transform="translate(-2661.489 -497.816)"/><path class="b" d="M2773.947,494.068a1.884,1.884,0,0,1-.778-.783,2.494,2.494,0,0,1-.271-1.193,2.449,2.449,0,0,1,.289-1.206,2.007,2.007,0,0,1,.815-.805,2.5,2.5,0,0,1,1.21-.285,2.725,2.725,0,0,1,.717.1,2.392,2.392,0,0,1,.645.276.548.548,0,0,1,.276.5.629.629,0,0,1-.106.378.336.336,0,0,1-.285.147.586.586,0,0,1-.218-.04c-.068-.027-.159-.067-.272-.12a2.8,2.8,0,0,0-.333-.151.973.973,0,0,0-.334-.054.932.932,0,0,0-.76.316,1.408,1.408,0,0,0-.263.921,1.426,1.426,0,0,0,.263.926.926.926,0,0,0,.76.32,1.013,1.013,0,0,0,.33-.049,2.657,2.657,0,0,0,.347-.156c.112-.053.2-.093.267-.12a.546.546,0,0,1,.213-.04.337.337,0,0,1,.281.151.631.631,0,0,1,.111.383.527.527,0,0,1-.276.49,2.358,2.358,0,0,1-.658.276,3.085,3.085,0,0,1-.783.1A2.441,2.441,0,0,1,2773.947,494.068Z" transform="translate(-2747.259 -488.639)"/><path class="b" d="M2791.841,494.064a1.97,1.97,0,0,1-.811-.792,2.7,2.7,0,0,1,0-2.412,1.941,1.941,0,0,1,.811-.788,2.833,2.833,0,0,1,2.439,0,1.937,1.937,0,0,1,.81.788,2.693,2.693,0,0,1,0,2.412,1.966,1.966,0,0,1-.81.792,2.792,2.792,0,0,1-2.439,0Zm2.2-2a1.469,1.469,0,0,0-.253-.944.88.88,0,0,0-.725-.312q-.98,0-.98,1.255t.98,1.255Q2794.04,493.321,2794.039,492.066Z" transform="translate(-2760.712 -488.639)"/><path class="b" d="M2819.339,490.228a2.106,2.106,0,0,1,.383,1.411v2.056a.588.588,0,0,1-.186.472.714.714,0,0,1-.481.16.735.735,0,0,1-.481-.16.573.573,0,0,1-.2-.472v-2.074a.94.94,0,0,0-.147-.6.556.556,0,0,0-.45-.173.746.746,0,0,0-.6.258,1.063,1.063,0,0,0-.223.721v1.869a.586.586,0,0,1-.187.472.714.714,0,0,1-.481.16.732.732,0,0,1-.48-.16.573.573,0,0,1-.2-.472v-2.074a.935.935,0,0,0-.148-.6.554.554,0,0,0-.449-.173.747.747,0,0,0-.6.258,1.069,1.069,0,0,0-.222.721v1.869a.579.579,0,0,1-.192.472.715.715,0,0,1-.476.16.735.735,0,0,1-.481-.16.575.575,0,0,1-.2-.472v-3.267a.549.549,0,0,1,.2-.454.752.752,0,0,1,.486-.16.652.652,0,0,1,.444.156.545.545,0,0,1,.178.432v.089a1.425,1.425,0,0,1,.556-.516,1.661,1.661,0,0,1,.779-.178,1.547,1.547,0,0,1,.8.191,1.242,1.242,0,0,1,.5.619,1.509,1.509,0,0,1,.583-.592,1.691,1.691,0,0,1,.859-.218A1.387,1.387,0,0,1,2819.339,490.228Z" transform="translate(-2777.378 -488.639)"/></g></g></svg>