<svg xmlns="http://www.w3.org/2000/svg" width="26.133" height="37.005" viewBox="0 0 26.133 37.005"><defs><style>.a{fill:#921ddb;}</style></defs><g transform="translate(-54.503)"><g transform="translate(54.51)"><path class="a" d="M77.163,1.42A29.088,29.088,0,0,0,67.637,0,29.077,29.077,0,0,0,58.11,1.421c-2.212.8-3.532,1.845-3.532,2.8s1.32,1.995,3.532,2.8h0a29.071,29.071,0,0,0,9.527,1.421,29.073,29.073,0,0,0,9.527-1.421c2.212-.8,3.532-1.845,3.532-2.8S79.375,2.221,77.163,1.42Z" transform="translate(-54.578)"/></g><g transform="translate(54.503 25.972)"><path class="a" d="M67.569,263.454c-5.118,0-10.473-1.057-13.066-3.06v6.816c0,.951,1.325,2,3.536,2.8a29.11,29.11,0,0,0,9.532,1.42,34.253,34.253,0,0,0,6.336-.567c3.959-.76,6.728-2.26,6.728-3.65v-6.816C78.042,262.4,72.687,263.454,67.569,263.454Zm2.294,4.63H65.275a.8.8,0,1,1,0-1.6h4.588a.8.8,0,1,1,0,1.6Z" transform="translate(-54.503 -260.394)"/></g><g transform="translate(54.503 16.47)"><path class="a" d="M67.569,168.19c-5.118,0-10.473-1.057-13.066-3.06v6.749c0,.951,1.325,2,3.536,2.8a29.107,29.107,0,0,0,9.532,1.421,29.088,29.088,0,0,0,9.529-1.421c2.211-.8,3.535-1.845,3.535-2.8v-6.75C78.042,167.133,72.687,168.19,67.569,168.19Zm2.294,4.457H65.275a.8.8,0,0,1,0-1.6h4.588a.8.8,0,1,1,0,1.6Z" transform="translate(-54.503 -165.13)"/></g><g transform="translate(54.503 6.969)"><path class="a" d="M67.569,72.929c-5.118,0-10.473-1.058-13.066-3.061v6.75c0,.951,1.325,2,3.536,2.8a29.107,29.107,0,0,0,9.532,1.421A29.088,29.088,0,0,0,77.1,79.414c2.211-.8,3.535-1.846,3.535-2.8v-6.75C78.042,71.871,72.687,72.929,67.569,72.929Zm2.294,4.583H65.275a.8.8,0,0,1,0-1.6h4.588a.8.8,0,1,1,0,1.6Z" transform="translate(-54.503 -69.868)"/></g></g></svg>