<svg xmlns="http://www.w3.org/2000/svg" width="42.825" height="42.825" viewBox="0 0 42.825 42.825"><defs><style>.a{fill:#9b1ee9;}</style></defs><path class="a" d="M42.111,34.26a.714.714,0,0,0,.714-.714v-5.71a.714.714,0,0,0-.714-.714H34.26V24.981a.714.714,0,0,0-.714-.714H22.126V21.412H30.2a6.979,6.979,0,0,0,6.916-7.025c0-.226-.013-.449-.034-.669-.006-.062-.016-.123-.023-.185-.019-.162-.043-.323-.073-.482-.011-.061-.025-.121-.038-.181q-.055-.251-.125-.493c-.013-.043-.024-.086-.038-.128a6.964,6.964,0,0,0-3.28-4.031c-.04-.022-.082-.04-.123-.061-.133-.07-.268-.138-.406-.2-.116-.052-.235-.1-.354-.142-.063-.024-.125-.049-.189-.071-.148-.051-.3-.1-.449-.138-.018-.005-.034-.011-.052-.016A8.016,8.016,0,0,0,24,0a7.837,7.837,0,0,0-.991.07c-.1.013-.2.03-.3.046-.235.039-.465.088-.692.148-.1.026-.2.049-.3.078a7.726,7.726,0,0,0-.839.306c-.119.051-.231.113-.346.17-.161.08-.32.162-.475.252-.136.079-.268.16-.4.246s-.261.184-.388.281c-.2.147-.383.3-.565.468-.133.121-.264.241-.388.37-.1.107-.2.22-.3.334q-.189.221-.363.455c-.069.094-.142.185-.208.282a8.046,8.046,0,0,0-.486.819c-.01.019-.024.036-.034.056a4.219,4.219,0,0,0-1.2-.174A4.369,4.369,0,0,0,11.4,8.6a4.474,4.474,0,0,0,.084.865,5.974,5.974,0,0,0,.112,11.945H20.7v2.855H9.279a.714.714,0,0,0-.714.714v2.141H.714A.714.714,0,0,0,0,27.836v5.71a.714.714,0,0,0,.714.714h.714v1.428H.714A.714.714,0,0,0,0,36.4v5.71a.714.714,0,0,0,.714.714h17.13a.714.714,0,0,0,.714-.714V36.4a.714.714,0,0,0-.714-.714H17.13V34.26h.714a.714.714,0,0,0,.714-.714v-5.71a.714.714,0,0,0-.714-.714H9.992V25.695h22.84v1.428H24.981a.714.714,0,0,0-.714.714v5.71a.714.714,0,0,0,.714.714h.714v1.428h-.714a.714.714,0,0,0-.714.714v5.71a.714.714,0,0,0,.714.714h17.13a.714.714,0,0,0,.714-.714V36.4a.714.714,0,0,0-.714-.714H41.4V34.26ZM4.282,29.977H5.71a.714.714,0,1,1,0,1.427H4.282a.714.714,0,1,1,0-1.427ZM6.424,39.97H3.569a.714.714,0,0,1,0-1.427H6.424a.714.714,0,0,1,0,1.427Zm8.565,0H9.279a.714.714,0,0,1,0-1.427h5.71a.714.714,0,0,1,0,1.427Zm.714-4.282H2.855V34.26H15.7Zm-2.855-5.71h1.428a.714.714,0,1,1,0,1.427H12.847a.714.714,0,1,1,0-1.427Zm-2.141.714a.714.714,0,0,1-.714.714H8.565a.714.714,0,1,1,0-1.427H9.993A.714.714,0,0,1,10.706,30.691Zm26.409-.714h1.428a.714.714,0,0,1,0,1.427H37.115a.714.714,0,1,1,0-1.427Zm-4.282,0H34.26a.714.714,0,0,1,0,1.427H32.832a.714.714,0,1,1,0-1.427Zm-4.282,0h1.428a.714.714,0,0,1,0,1.427H28.55a.714.714,0,1,1,0-1.427Zm2.141,9.993H27.836a.714.714,0,0,1,0-1.427h2.855a.714.714,0,0,1,0,1.427Zm8.565,0h-5.71a.714.714,0,0,1,0-1.427h5.71a.714.714,0,1,1,0,1.427Zm.714-4.282H27.122V34.26H39.97Z"/></svg>