<svg xmlns="http://www.w3.org/2000/svg" width="36" height="36" viewBox="0 0 36 36"><defs><style>.a{fill:#9b1ee9;}</style></defs><g transform="translate(11.519 2.285)"><path class="a" d="M163.83,40.833h5.426V32.5C166.991,33.245,164.954,36.424,163.83,40.833Z" transform="translate(-163.83 -32.501)"/></g><g transform="translate(11.519 25.382)"><path class="a" d="M163.83,361c1.124,4.409,3.161,7.588,5.426,8.332V361Z" transform="translate(-163.83 -361)"/></g><g transform="translate(0 12.726)"><path class="a" d="M34.945,181H1.055A1.055,1.055,0,0,0,0,182.055v8.437a1.055,1.055,0,0,0,1.055,1.055h33.89A1.055,1.055,0,0,0,36,190.492v-8.437A1.055,1.055,0,0,0,34.945,181Zm-1.236,3.636L31.6,188.854a1.055,1.055,0,0,1-1.887,0l-1.166-2.332-1.166,2.332a1.1,1.1,0,0,1-1.887,0l-2.021-4.043a1.024,1.024,0,0,1-.213-.537,1.042,1.042,0,0,1-.1.361l-2.109,4.219a1.055,1.055,0,0,1-1.887,0L18,186.523l-1.166,2.332a1.1,1.1,0,0,1-1.887,0l-2.109-4.219a1.038,1.038,0,0,1-.094-.347,1.08,1.08,0,0,1-.251.592l-1.987,3.974a1.055,1.055,0,0,1-1.887,0l-1.166-2.332-1.166,2.332a1.055,1.055,0,0,1-1.887,0l-2.109-4.219a1.055,1.055,0,0,1,1.887-.943l1.166,2.332,1.166-2.332a1.063,1.063,0,0,1,1.887,0l1.166,2.332,1.166-2.332a1.1,1.1,0,0,1,1.011-.581,1.079,1.079,0,0,1,1,1.02,1.043,1.043,0,0,1,.568-.911,1.056,1.056,0,0,1,1.415.472l1.166,2.332,1.166-2.332a1.1,1.1,0,0,1,1.887,0l1.166,2.332,1.166-2.332a1.056,1.056,0,0,1,1.415-.472,1.042,1.042,0,0,1,.567.9,1.014,1.014,0,0,1,.939-1.006,1.167,1.167,0,0,1,1.075.577l1.166,2.332,1.166-2.332a1.1,1.1,0,0,1,1.887,0l1.166,2.332,1.166-2.332a1.055,1.055,0,0,1,1.887.943Z" transform="translate(0 -181)"/></g><g transform="translate(19.054 25.382)"><path class="a" d="M271,361v8.332c2.265-.744,4.3-3.923,5.426-8.332Z" transform="translate(-271 -361)"/></g><g transform="translate(19.054 2.285)"><path class="a" d="M271,32.5v8.332h5.426C275.3,36.424,273.265,33.245,271,32.5Z" transform="translate(-271 -32.501)"/></g><g transform="translate(1.726 25.382)"><path class="a" d="M32.171,361H24.544a18.075,18.075,0,0,0,16.274,10.617C37.008,371.617,33.68,367.421,32.171,361Z" transform="translate(-24.544 -361)"/></g><g transform="translate(18 25.382)"><path class="a" d="M264.647,361c-1.509,6.421-4.837,10.617-8.647,10.617A18.075,18.075,0,0,0,272.274,361Z" transform="translate(-256 -361)"/></g><g transform="translate(1.726 0)"><path class="a" d="M24.544,10.617h7.627C33.68,4.2,37.008,0,40.818,0A18.075,18.075,0,0,0,24.544,10.617Z" transform="translate(-24.544 0)"/></g><g transform="translate(18 0)"><path class="a" d="M256,0c3.81,0,7.138,4.2,8.647,10.617h7.627A18.075,18.075,0,0,0,256,0Z" transform="translate(-256)"/></g></svg>