<svg xmlns="http://www.w3.org/2000/svg" xmlns:xlink="http://www.w3.org/1999/xlink" width="1920" height="446" viewBox="0 0 1920 446"><defs><style>.a{fill:#fff;}.b{clip-path:url(#a);}.c{fill:url(#b);}.d,.f{fill:#8d14d8;}.e{fill:#890cd5;opacity:0.71;}.f{opacity:0.93;}.g{opacity:0.51;}.h{mix-blend-mode:lighten;isolation:isolate;}.i{fill:#9e2ae5;}</style><clipPath id="a"><rect class="a" width="1920" height="446" transform="translate(0 4233)"/></clipPath><linearGradient id="b" x1="0.083" y1="0.179" x2="0.937" y2="0.949" gradientUnits="objectBoundingBox"><stop offset="0" stop-color="#941ddd"/><stop offset="1" stop-color="#840ecc"/></linearGradient></defs><g class="b" transform="translate(0 -4233)"><rect class="c" width="1920" height="446" transform="translate(0 4233)"/><g transform="translate(1899.948 3054.907) rotate(90)"><path class="d" d="M414.169,304.964s-25.9-107.04-120.059-115.556c-44.237-8.039-78.741-45.294-100.93-105.425S97.529-41.487,37.037,33.974s5.155,156.068,5.155,156.068S86.054,294.7,23.9,391.909C-16.49,501.354,6.533,518.119,6.533,518.119L421.77,535.1Z" transform="matrix(0.174, -0.985, 0.985, 0.174, 1178.761, 302.782)"/><path class="e" d="M377.842,273.595s-22.274-97.319-107.6-103.668c-40.038-6.668-70.915-40.154-90.358-94.708S94.545-37.867,38.814,31.933s2.9,142.388,2.9,142.388,38.6,94.87-18.884,184.552C-15.053,459.391,5.641,474.346,5.641,474.346l376.481,9.213Z" transform="translate(1259.222 288.975) rotate(-83)"/><path class="f" d="M317.281,229.743s-18.7-81.721-90.35-87.052c-33.62-5.6-59.548-33.718-75.876-79.528S79.391-31.8,32.593,26.815,35.03,146.381,35.03,146.381s32.413,79.664-15.857,154.972C-12.641,385.76,4.737,398.318,4.737,398.318l316.138,7.736Z" transform="translate(1343.288 257.323) rotate(-83)"/></g><g class="g" transform="translate(1.972 4234)"><g class="h" transform="translate(0)"><path class="i" d="M321.929,194.893V150.626l38.337-22.134L398.6,150.626v44.268l-38.337,22.134Z" transform="translate(115.751 227.973)"/><path class="i" d="M354.013,194.893V150.626l38.337-22.134,38.337,22.134v44.268L392.35,217.027Z" transform="translate(-1.853 227.973)"/><path class="i" d="M386.1,194.893V150.626l38.337-22.134,38.337,22.134v44.268l-38.337,22.134Z" transform="translate(-119.458 227.973)"/><path class="i" d="M418.181,194.893V150.626l38.337-22.134,38.337,22.134v44.268l-38.337,22.134Z" transform="translate(-237.062 227.973)"/><path class="i" d="M450.264,194.893V150.626L488.6,128.492l38.337,22.134v44.268L488.6,217.027Z" transform="translate(-354.666 227.973)"/><path class="i" d="M482.348,194.893V150.626l38.337-22.134,38.337,22.134v44.268l-38.337,22.134Z" transform="translate(-472.27 227.973)"/><path class="i" d="M370.239,166.374V122.107l38.337-22.134,38.337,22.134v44.267l-38.337,22.134Z" transform="translate(-61.331 180.474)"/><path class="i" d="M402.323,166.374V122.107L440.66,99.973,479,122.107v44.267L440.66,188.508Z" transform="translate(-178.935 180.474)"/><path class="i" d="M434.407,166.374V122.107l38.337-22.134,38.337,22.134v44.267l-38.337,22.134Z" transform="translate(-296.54 180.474)"/><path class="i" d="M466.491,166.374V122.107l38.337-22.134,38.337,22.134v44.267l-38.337,22.134Z" transform="translate(-414.144 180.474)"/><path class="i" d="M498.574,102.954l5.163-2.981,38.337,22.134v44.267l-38.337,22.134-5.163-2.981Z" transform="translate(-498.574 180.474)"/><path class="i" d="M418.181,138.47V94.2l38.337-22.134L494.854,94.2V138.47L456.518,160.6Z" transform="translate(-237.062 133.998)"/><path class="i" d="M450.264,138.47V94.2L488.6,72.069,526.938,94.2V138.47L488.6,160.6Z" transform="translate(-354.666 133.998)"/><path class="i" d="M482.348,138.47V94.2l38.337-22.134L559.022,94.2V138.47L520.685,160.6Z" transform="translate(-472.27 133.998)"/><path class="i" d="M434.407,109.951V65.684L472.744,43.55l38.337,22.134v44.267l-38.337,22.134Z" transform="translate(-296.54 86.499)"/><path class="i" d="M466.491,109.951V65.684L504.828,43.55l38.337,22.134v44.267l-38.337,22.134Z" transform="translate(-414.144 86.499)"/><path class="i" d="M498.574,46.531l5.163-2.981,38.337,22.134v44.267l-38.337,22.134-5.163-2.981Z" transform="translate(-498.574 86.499)"/><path class="i" d="M418.181,82.047V37.78l38.337-22.134L494.854,37.78V82.047l-38.337,22.134Z" transform="translate(-237.062 40.023)"/><path class="i" d="M450.264,82.047V37.78L488.6,15.646,526.938,37.78V82.047L488.6,104.181Z" transform="translate(-354.666 40.023)"/><path class="i" d="M482.348,82.047V37.78l38.337-22.134L559.022,37.78V82.047l-38.337,22.134Z" transform="translate(-472.27 40.023)"/><path class="i" d="M507.99-5.239l3.09,1.784V40.813L472.743,62.946,434.407,40.813V-3.455l3.09-1.784Z" transform="translate(-296.54 5.239)"/><path class="i" d="M540.074-5.239l3.091,1.784V40.813L504.827,62.946,466.491,40.813V-3.455l3.09-1.784Z" transform="translate(-414.144 5.239)"/><path class="i" d="M498.574-5.239h40.409l3.09,1.784V40.813L503.737,62.946l-5.163-2.981Z" transform="translate(-498.574 5.239)"/></g></g></g></svg>