<svg xmlns="http://www.w3.org/2000/svg" width="2629.66" height="1652.587" viewBox="0 0 2629.66 1652.587"><defs><style>.a,.b{fill:#e8c4ff;}.a{opacity:0.33;}.b{opacity:0.55;}</style></defs><g transform="translate(318.238 -631.779)"><path class="a" d="M-1455.5,3111.267s365.9,322.08,1068.116,217.419c375.722-57.292,629.822,8.47,902.55,185.142,296.061,98.116,66.774,48.54,526.414,84.815,0,137.354-68.973,906.4-68.973,906.4L847.37,4510.5S403.248,4350.63-368.844,4346.845c-975.7-68.533-1058.83-323.416-1058.83-323.416Z" transform="matrix(0.995, 0.105, -0.105, 0.995, 1600.768, -2310.302)"/><path class="b" d="M-1455.5,3111.266s397.876,248.541,878.257,166.419c518.561-40.315,577.46,56.3,757.857,132.214,140.695,68.752,2.032,97.58,381.745,127.548,0,113.469-11.975,725.232-11.975,725.232l-103.456,4.51S76.6,4112.625-545.721,4139.83c-801.584-40.549-886.792-275.016-886.792-275.016Z" transform="translate(1608.544 -2206.576) rotate(3)"/></g></svg>