<svg xmlns="http://www.w3.org/2000/svg" width="542.965" height="653.407" viewBox="0 0 542.965 653.407"><defs><style>.a{fill:#941ddd;}.b{fill:#8417c7;}.c{fill:#2a1736;opacity:0.15;mix-blend-mode:multiply;isolation:isolate;}.d{fill:#351710;}.e{fill:#d83a64;}.f{fill:#ffb884;}.g{fill:#3d5daa;}.h{fill:#4670b6;}.i{fill:#f73c65;}.j{fill:#f8a163;}.k{fill:#f7b690;}.l{fill:#603917;}.m{fill:#ff7196;}.n{fill:#e5226e;}.o{fill:#f4d1d9;}.p{fill:#fdd247;}.q{fill:#fff;}.r{fill:#c65e55;}.s{fill:#242429;}.t{fill:none;}.u{fill:#d56b7e;}.v{fill:#1c254b;}.w{fill:#21306e;}.x{fill:#e43d7d;}.y{fill:#292828;}.z{fill:#9c4152;}.aa{fill:#c55d54;}.ab{fill:#3ca1b9;}</style></defs><g transform="translate(-1001.278 -170.551)"><g transform="translate(1042.638 588.865)"><path class="a" d="M800.88,612.253c-7.958-13.146-7.794-32.993,2.559-48.342,3.312-4.909,7.725-9.728,7.757-15.65.028-5.372-3.589-9.956-6.02-14.747a35.59,35.59,0,0,1,22.761-50.437c17.893-4.634,38.5,6.941,34.157,30.512-3.225,17.52-17.088,25.908-14.215,37.111,1.857,7.242,9.957,10.511,16.146,14.7,13.592,9.21,20.143,27.644,15.41,43.366C867.505,648.4,817.428,639.59,800.88,612.253Z" transform="translate(-795.255 -482.071)"/><g transform="translate(38.177 26.164)"><rect class="b" width="1.071" height="166.635" transform="translate(0 0)"/></g><g transform="translate(38.315 83.666)"><rect class="b" width="14.688" height="1.072" transform="translate(0 10.808) rotate(-47.378)"/></g><g transform="translate(25.868 113.237)"><path class="b" d="M878.1,815.817l-12.811-13.055.763-.751,12.113,12.344,30.155-25.732.694.814Z" transform="translate(-865.285 -788.623)"/></g><g transform="translate(21.788 30.695)"><rect class="b" width="1.071" height="23.764" transform="translate(0 0.745) rotate(-44.105)"/></g></g><g transform="translate(1121.462 651.011)"><path class="a" d="M121.066,705.875c-4.921-8.13-4.82-20.4,1.583-29.9,2.048-3.036,4.778-6.016,4.8-9.678.017-3.322-2.219-6.157-3.723-9.119A22.009,22.009,0,0,1,137.8,625.99c11.065-2.866,23.806,4.292,21.123,18.869-1.995,10.835-10.567,16.022-8.791,22.95,1.148,4.478,6.157,6.5,9.985,9.094a24.706,24.706,0,0,1,9.53,26.818C162.268,728.231,131.3,722.781,121.066,705.875Z" transform="translate(-117.588 -625.368)"/><g transform="translate(23.609 16.18)"><rect class="b" width="0.662" height="103.05"/></g><g transform="translate(23.695 51.74)"><rect class="b" width="9.083" height="0.663" transform="matrix(0.677, -0.736, 0.736, 0.677, 0, 6.683)"/></g><g transform="translate(15.997 70.028)"><path class="b" d="M170.4,838.674l-7.923-8.074.472-.464,7.491,7.634,18.648-15.913.43.5Z" transform="translate(-162.475 -821.856)"/></g><g transform="translate(13.474 18.982)"><rect class="b" width="0.662" height="14.696" transform="translate(0 0.461) rotate(-44.105)"/></g></g><path class="c" d="M413.7,1017.768c-6.226.945-12.964,2.116-16.988,5.836-7.717,7.137.637,18.662,12.116,21.742s24.066.734,36.118-.584c63.662-6.959,127.3,15.926,191.475,12.664,15.354-.782,30.5-3.054,45.594-5.323l96.916-14.564c48.9-7.348,99.078-15.073,141.16-35.328-29.807-23.245-79.5-18.425-121.948-14.429-61.327,5.773-120.518-2.126-180.516-.209C550.773,989.711,479.353,1007.8,413.7,1017.768Z" transform="translate(607.554 -233.789)"/><g transform="translate(1271.701 169.485)"><path class="d" d="M392.141,774.74s-1.388,14.454-1.249,19.617h34.485v-.686a2.828,2.828,0,0,0-2.3-2.85c-6.076-.966-17.341-3.692-22.058-19.326Z" transform="translate(-381.256 -184.053)"/><path class="d" d="M289.8,774.462s-1.388,14.454-1.249,19.617h34.485v-.686a2.829,2.829,0,0,0-2.3-2.851c-6.077-.966-17.342-3.691-22.058-19.326Z" transform="translate(-193.121 -184.008)"/><g transform="translate(0)"><g transform="translate(66.367 122.428)"><path class="e" d="M269.32,245.457c-12.036,8.759-3.527,27.837,6.683,43.382,11.363,17.3,16.055,24.615,50.9,46.179,7.378,4.565,18.354-6.245,21.128-20.783,0,0-29.128-10.994-43.876-43.587C289.862,239.052,273.469,242.439,269.32,245.457Z" transform="translate(-263.425 -221.158)"/><g transform="translate(51.767)"><path class="f" d="M244.4,216.832c.444,6.544,5.837,13.267,12.738,13.267a18.261,18.261,0,0,0,2.821-.218c-2.43,6.146-6.069,13.619-8.6,12.6,0,0-6.781-10.3-7.157-18.757A39.15,39.15,0,0,1,244.4,216.832Z" transform="translate(-210.957 -216.832)"/><path class="e" d="M249.148,317.854s26.2-45.528,36.593-77.49l8.219,4.187s-.583,49.072-18.351,86.859C270.131,343.062,254.136,334.584,249.148,317.854Z" transform="translate(-249.148 -220.635)"/></g></g><g transform="translate(51.108 329.822)"><path class="g" d="M368.215,464.209s3.209,84.63,1.228,147.083c-9.172,11.023-19.379,15.719-31.839,6.644,0,0-14.856-51.124-23.116-69.273s-14.257-60.034-2.257-75.095Z" transform="translate(-305.462 -464.209)"/><path class="g" d="M338.786,638.459s-1.425,79.175-6.105,115.316l-13.566,4.874c-3.8-39.938-15.932-80.351-12.168-113.545C315.687,629.766,326.514,629.052,338.786,638.459Z" transform="translate(-274.805 -491.376)"/></g><g transform="translate(9.626 336.43)"><path class="h" d="M401.88,477.97s-18.267,82.67-35.944,142.518c-11.632,8.211-22.664,10.029-32.395-2.066,0,0-.755-56.35-2.2-76.367-2.525-34.951-1.212-58.6,14.168-69.964Z" transform="translate(-316.617 -472.091)"/><path class="h" d="M422.518,647.087s-21.362,76.162-35,109.853L373.2,758.034c6.42-39.622,4.912-81.927,16.924-113.013C402.427,632.525,413.054,634.721,422.518,647.087Z" transform="translate(-373.199 -498.69)"/></g><path class="i" d="M343.229,241.271c18.7-1.475,37.754,22.457,42.416,77.506,3.667,43.318,10.128,126.605,10.128,126.605S336.1,463.125,301.4,451.738c0,0,6.123-108.265,8.924-145.6S311.176,243.8,343.229,241.271Z" transform="translate(-276.633 -98.344)"/><path class="j" d="M357.022,210.991s5.118,19.444,1.478,29.932c0,0,1.375,3.432,10,2.842s9.742-3.971,10.657-5.5c0,0-3.6-5.262-4.181-17.561S357.022,210.991,357.022,210.991Z" transform="translate(-306.651 -93.424)"/><path class="k" d="M381.57,161.111c7.35,11.794,23.446,41.943,10.74,52.211-8.71,7.04-32.759-2.881-38.893-12.116-6.217-9.361-20.835-20.92-.5-38.073C369.271,149.335,377.533,154.632,381.57,161.111Z" transform="translate(-312.357 -84.325)"/><path class="l" d="M364.4,197.491c-4.251-3.779-6.284-10.812-8.036-15.861a32.476,32.476,0,0,1-1.644-5.912,23.462,23.462,0,0,1,.239-7.237,40.3,40.3,0,0,1,18.225-27.469,20.918,20.918,0,0,1,6.847-2.877,21.132,21.132,0,0,1,7.373.083c5.541.891,11.164,3.193,14.48,7.723a12.877,12.877,0,0,1,2.169,10.254c-.293,1.264-1.159,4.123-2.56,4.629s-2.959-.978-4.237-1.5a10.65,10.65,0,0,0-5.776-.982c-5.065.729-14.946,6.07-18.466,11.549-3.532,5.5-2.78,11.152,4.558,15.688,5.326,3.28,5.029,6.3,4.471,7.706a3.141,3.141,0,0,1-.459.832,5.369,5.369,0,0,0-.787-1.091,10.22,10.22,0,0,0-8.94-2.516,2.843,2.843,0,0,0-1.05.516c-1.759,1.581-.62,4.48,3.332,7.938s5.008,1.856,9.489,5.937a4.888,4.888,0,0,1,1.333,1.873c1.489,3.815-2.949,8.183-2.949,8.183-.747-4.8-1.156-4.49-2.845-6.7-3.51-4.495-9.5-6.827-13.93-10.089Q364.8,197.851,364.4,197.491Z" transform="translate(-329.759 -81.638)"/><path class="j" d="M428.645,506.9c-1.728-2.394-3.231-6.043-4.883-8.136-1.321-1.673-2.366-3.136-4.2-3.263s-4.728,1.526-3.964,3.536a5.222,5.222,0,0,0,4.458,3.017c1.208-.067,3.146,2.382,3.725,3.3C425.839,508.619,429.458,508.031,428.645,506.9Z" transform="translate(-405.257 -139.444)"/><path class="f" d="M428.983,483.963s7.926,9.445,9.278,17.8.216,11.561-1.2,11.4c-1.866-.218-.958-7.244-2.679-7.664s-1.525,11.788-4.371,10.889c-2.2-.7.986-8.736-1.03-9s-1.2,8.378-3.752,7.573.743-8.482-.813-8.768-2.109,5.56-3.611,5.263c-.872-.172-1-5.646.635-12.234S426.1,483.176,428.983,483.963Z" transform="translate(-419.308 -137.572)"/><g transform="translate(0 152.199)"><path class="m" d="M425.289,254.459c-12.854-7.87-26.286,7.279-34.684,27.834-7.887,19.3-14.988,26.55-21.342,77.178-1.235,9.845,4.664,12.824,23.131,10.926,0,0,14.482-36.478,29.767-70.549C436.171,268.62,429.72,257.171,425.289,254.459Z" transform="translate(-368.318 -252.343)"/><path class="m" d="M438.619,386.325s-10.847,50.058-11.435,83.663l-8.855.569s-7.469-43.751-4.276-90.861C414.849,367.974,428.956,371.787,438.619,386.325Z" transform="translate(-413.26 -271.809)"/></g><g transform="translate(84.685)"><g transform="translate(41.052 97.309)"><path class="n" d="M251.126,216.122,283.1,196.935l2.73-10.064-39.943,12.46Z" transform="translate(-245.888 -186.871)"/><path class="n" d="M260.274,234.739l16.026-1.108-30.328-32.44L229.946,202.3Z" transform="translate(-222.992 -189.185)"/></g><path class="o" d="M197.049,144.79l8.67-3.423a8.774,8.774,0,0,0,4.938-11.382h0a8.773,8.773,0,0,0-11.382-4.938l-8.67,3.423a8.772,8.772,0,0,0-4.938,11.382h0A8.773,8.773,0,0,0,197.049,144.79Z" transform="translate(-85.465 -71.548)"/><path class="p" d="M186.637,166.3l-7.552-19.124-7.552-19.124s61.3-22.437,63.244-57.248l18.577,47.046,18.577,47.046C246.728,140.8,186.637,166.3,186.637,166.3Z" transform="translate(-136.33 -56.774)"/><path class="o" d="M322.92,182.46l-16.462-41.691L285.612,149A22.411,22.411,0,0,0,273,178.077h0a22.412,22.412,0,0,0,29.077,12.613Z" transform="translate(-259.694 -76.048)"/><g transform="matrix(1, 0.017, -0.017, 1, 115.717, 0.705)"><path class="q" d="M345.711,70.91c-3.859,5.774-7.8,11.488-12.049,16.986-.843,1.091-1.648,2.212-2.512,3.286a1.238,1.238,0,0,1-1.745.255,1.257,1.257,0,0,1-.175-1.7c.191-.308.411-.6.63-.887,1.863-2.474,3.761-4.922,5.586-7.424,3.449-4.728,6.69-9.609,10.3-14.22.291-.371.578-.724,1.108-.714a1.071,1.071,0,0,1,.837,1.74C347.086,69.157,346.328,69.987,345.711,70.91Z" transform="translate(-308.35 -66.487)"/><path class="q" d="M309,127.1c.9-.477,1.8-.952,2.723-1.366,5.148-2.3,10.5-4.077,15.758-6.095a1.662,1.662,0,0,1,.33-.071,1.043,1.043,0,0,1,1.125.656.975.975,0,0,1-.341,1.231,5.354,5.354,0,0,1-1.09.565c-5.817,2.373-11.78,4.4-17.4,7.254a1.273,1.273,0,0,1-1.842-.4C307.91,128.217,308.168,127.547,309,127.1Z" transform="translate(-276.21 -85.842)"/><path class="q" d="M322.132,200.9a3.633,3.633,0,0,1,.7.379,89.389,89.389,0,0,1,7.553,5.4,5.688,5.688,0,0,1,1.044.9,1.026,1.026,0,0,1,.126,1.156,1.045,1.045,0,0,1-.948.567,1.758,1.758,0,0,1-1.1-.506,93.941,93.941,0,0,0-8.2-5.621,1.887,1.887,0,0,1-.452-.357,1.177,1.177,0,0,1,1.274-1.911Z" transform="translate(-286.735 -115.463)"/><path class="q" d="M388.227,94.365a1.039,1.039,0,0,1-1.2.907c-.594-.055-.92-.548-.9-1.608.286-1.425.612-3.18,1-4.922a1.119,1.119,0,0,1,1.385-.951,1.183,1.183,0,0,1,.831,1.483C389,90.976,388.608,92.67,388.227,94.365Z" transform="translate(-386.129 -74.242)"/><path class="q" d="M277,172.029a1.238,1.238,0,0,1-1.092-1.388c.119-.7.668-1.062,1.525-.995a2.614,2.614,0,0,1,.36.048q9.391,2.058,18.868,3.669c4,.687,7.989,1.477,11.989,2.186a3.176,3.176,0,0,1,2.244.942v.582a1.813,1.813,0,0,1-2,.761c-3.458-.578-6.927-1.093-10.385-1.67-5.939-.991-11.868-2.034-17.753-3.317C279.5,172.574,278.242,172.326,277,172.029Z" transform="translate(-237.594 -104.098)"/></g></g><path class="f" d="M239.264,219.164c2.379-2.765,6.575-4.222,10-2.062a18.218,18.218,0,0,1,5.481,5.434,5.788,5.788,0,0,1,.578,5.21,7.966,7.966,0,0,1-3.3,4.238,3.873,3.873,0,0,1-3.2-.185,18.484,18.484,0,0,1-4.836-2.659,27.419,27.419,0,0,1-3.674-3.385,7.014,7.014,0,0,1-1.952-4.216A3.39,3.39,0,0,1,239.264,219.164Z" transform="translate(-83.693 -94.28)"/><path class="r" d="M591.7,184.436a13.428,13.428,0,0,1,6.414-5.824c.388-.171.816-.513.611-1.025-.257-.64-.863-.71-1.48-.665C594.6,177.113,591.4,181.142,591.7,184.436Z" transform="translate(-545.932 -14.526) rotate(-7)"/><path class="s" d="M585.549,193.419a2.1,2.1,0,0,0,2.26,2.044c1.536.071,2.259-.734,2.259-1.931,0-1.292-.814-2.06-2.43-2.109C586.2,191.38,585.52,192.038,585.549,193.419Z" transform="matrix(0.788, -0.616, 0.616, 0.788, -511.378, 306.196)"/><path class="k" d="M78.73,94.718s5.111,8.026,6.768,9.408-2.348,5.11-4.006,4.005S78.73,94.718,78.73,94.718Z"/><path class="k" d="M556.042,224.119l-4.956,5.443c1.853,1.4,4.329,1.271,6.468,2.1,1.566-.726,1.793-1.869.649-3.04a1.732,1.732,0,0,1-.507-2.242C558.256,225,557.655,224.1,556.042,224.119Z" transform="matrix(0.998, 0.07, -0.07, 0.998, -455.405, -152.785)"/></g></g><g transform="translate(1007.278 187.823)"><g transform="translate(0 0)"><path class="n" d="M437.536,240.146a7.182,7.182,0,0,0-.262,4.064c.534,1.568,2.015,2.281,3.346,2.831a1.5,1.5,0,0,0,1.357.1,1.958,1.958,0,0,0,.571-.7,231.948,231.948,0,0,0,11.277-21.839c-.281.623-10.449-4.581-12.363-.821-.793,1.559-.928,5.1-1.411,6.91Z" transform="translate(-334.658 -123.339)"/><path class="t" d="M412.287,149.836c0-.015,0-.029,0-.043-.019,0-.036,0-.057,0A.571.571,0,0,1,412.287,149.836Z" transform="translate(-325.601 -96.862)"/><path class="p" d="M450.288,160.048c-.1-.571.106-1.166-.151-1.721h0c-1.665-1.165-3.3-2.372-5-3.488a159.908,159.908,0,0,1-24.062-19.1,98.953,98.953,0,0,1-13.367-15.451c-3.254-4.845-6.419-9.736-8.5-15.238a28.6,28.6,0,0,0-2.927-6.3,3.142,3.142,0,0,0-2.114-1.609c-.217.173-.141.38-.081.594a51.35,51.35,0,0,1,1.561,9.969,67.72,67.72,0,0,1,.079,7.464,41.51,41.51,0,0,1-1.6,8.94c-.505,1.959-.952,3.934-1.416,5.9-.074.313-.164.581-.531.587,0,.015,0,.029,0,.043.276.2.236.457.13.771-.687,2.038-1.548,4.005-2.352,6-2.134,5.279-5.242,10-8.342,14.729a40.989,40.989,0,0,1-3,4.166,36.934,36.934,0,0,1-2.931,3.859,66.7,66.7,0,0,1-6.412,7,88.452,88.452,0,0,1-10.423,8.517c-.555.374-1.172.656-1.759.981h0a2.491,2.491,0,0,0,1.977.517c4.615-.255,9.231-.254,13.85-.191.7.009,1.4.083,2.1.062,5.047-.155,10.087-.555,15.14-.522,3.553.024,7.1.128,10.643.436h0c.916.085,2.566.17,4.085.254.026,0,.048-.008.075-.007a12.981,12.981,0,0,1,3.346.339,1.443,1.443,0,0,1,.44-.008,42.91,42.91,0,0,1,5.9,1.182c3.124.638,6.211,1.423,9.3,2.189a1.834,1.834,0,0,1,.266.113,46.082,46.082,0,0,1,4.871,1.318h0c.071.013.144.02.213.04,2.74.77,5.366,1.86,8.021,2.867a2.51,2.51,0,0,0,1.825-.858,41.223,41.223,0,0,0,3.587-3.757,35.232,35.232,0,0,0,5.23-8.568,38.644,38.644,0,0,0,2.214-7.336A12.706,12.706,0,0,0,450.288,160.048Z" transform="translate(-305.496 -77.662)"/><path class="o" d="M355.609,175.625a88.4,88.4,0,0,0,10.423-8.517,66.775,66.775,0,0,0,6.412-7,36.951,36.951,0,0,0,2.931-3.859,51.955,51.955,0,0,0-5.495-6.538c-1.313-1.316-2.72-2.54-4.079-3.811-.228-.213-.428-.457-.64-.687h0a2.568,2.568,0,0,1-1.172-3.395,52.8,52.8,0,0,1,6.134-10.822,38.019,38.019,0,0,1,3.4-4.045,2.8,2.8,0,0,1,2.882-.9,3.655,3.655,0,0,1,1.012.686h0a46.7,46.7,0,0,0,11.467,3.811h0c.021,0,.038,0,.057,0,.367-.006.456-.274.531-.587.464-1.97.911-3.944,1.416-5.9a41.483,41.483,0,0,0,1.6-8.941,67.428,67.428,0,0,0-.079-7.464,51.353,51.353,0,0,0-1.56-9.969c-.06-.214-.137-.421.081-.594-.229-.221-.45.036-.684.013-2.2-.217-4.048.737-5.856,1.792a61.379,61.379,0,0,0-11.58,9.012,66.561,66.561,0,0,0-6.64,7.377,116.558,116.558,0,0,0-12.551,20.32,54.458,54.458,0,0,0-4.08,11.515,65.315,65.315,0,0,0-1.325,11.035c-.051.934.172,1.874.117,2.819a26.3,26.3,0,0,0,.53,4.881,30.2,30.2,0,0,0,1.581,6.227,11.69,11.69,0,0,0,1.655,3.2c.486.646,1.207.846,1.757,1.33h0C354.438,176.281,355.055,176,355.609,175.625Z" transform="translate(-302.255 -77.61)"/><path class="o" d="M516.058,205.478a4.362,4.362,0,0,0-1.594-2.768c-2.259-1.356-4.505-2.739-6.875-3.9-2.866-1.407-5.718-2.843-8.6-4.206a16.366,16.366,0,0,0-2.8-1.159h0c.257.555.055,1.151.151,1.721a12.72,12.72,0,0,1-.109,4.68,38.731,38.731,0,0,1-2.213,7.336,35.253,35.253,0,0,1-5.23,8.568,41.22,41.22,0,0,1-3.587,3.757,2.51,2.51,0,0,1-1.825.858,3.421,3.421,0,0,0,1.346.942c1.057.48,2.129.927,3.165,1.447,4.413,2.214,9.032,3.983,13.431,6.218a4.625,4.625,0,0,0,5.548-.42,39.318,39.318,0,0,0,3.73-2.974,21.722,21.722,0,0,0,4.54-7.855,21.5,21.5,0,0,0,1.3-6.356A16.375,16.375,0,0,0,516.058,205.478Z" transform="translate(-351.539 -112.778)"/><path class="q" d="M309.78,172.029a1.238,1.238,0,0,0,1.092-1.388c-.119-.7-.668-1.062-1.525-.995a2.614,2.614,0,0,0-.36.048q-9.391,2.058-18.868,3.669c-4,.687-7.989,1.477-11.99,2.186a3.176,3.176,0,0,0-2.244.942v.582a1.813,1.813,0,0,0,2,.761c3.458-.578,6.927-1.093,10.385-1.67,5.939-.991,11.868-2.034,17.753-3.317C307.276,172.574,308.534,172.326,309.78,172.029Z" transform="translate(-275.887 -104.098)"/><path class="q" d="M331.182,70.91c3.859,5.774,7.8,11.488,12.049,16.986.843,1.091,1.648,2.212,2.512,3.286a1.238,1.238,0,0,0,1.745.255,1.257,1.257,0,0,0,.175-1.7c-.191-.308-.411-.6-.63-.887-1.863-2.474-3.761-4.922-5.586-7.424-3.449-4.728-6.69-9.609-10.3-14.22-.291-.371-.578-.724-1.108-.714a1.071,1.071,0,0,0-.837,1.74C329.807,69.157,330.565,69.987,331.182,70.91Z" transform="translate(-295.247 -66.487)"/><path class="q" d="M328.139,127.1c-.9-.477-1.8-.952-2.723-1.366-5.148-2.3-10.5-4.077-15.758-6.095a1.662,1.662,0,0,0-.33-.071,1.043,1.043,0,0,0-1.125.656.975.975,0,0,0,.341,1.231,5.354,5.354,0,0,0,1.09.565c5.818,2.373,11.78,4.4,17.4,7.254a1.273,1.273,0,0,0,1.842-.4C329.232,128.217,328.974,127.547,328.139,127.1Z" transform="translate(-287.637 -85.842)"/><path class="q" d="M330.057,200.9a3.633,3.633,0,0,0-.7.379,89.394,89.394,0,0,0-7.553,5.4,5.688,5.688,0,0,0-1.044.9,1.026,1.026,0,0,0-.126,1.156,1.045,1.045,0,0,0,.948.567,1.758,1.758,0,0,0,1.1-.506,93.946,93.946,0,0,1,8.2-5.621,1.887,1.887,0,0,0,.452-.357,1.177,1.177,0,0,0-1.274-1.911Z" transform="translate(-292.158 -115.463)"/><path class="q" d="M387.282,94.365a1.039,1.039,0,0,0,1.2.907c.594-.055.92-.548.9-1.608-.286-1.425-.612-3.18-1-4.922a1.119,1.119,0,0,0-1.385-.951,1.183,1.183,0,0,0-.831,1.483C386.513,90.976,386.9,92.67,387.282,94.365Z" transform="translate(-316.084 -74.242)"/><path class="n" d="M398.616,147.609a46.7,46.7,0,0,1-11.467-3.811h0c-.044.056-.134.122-.125.166.435,1.984-.588,3.567-1.5,5.136-1.761,3.044-3.907,5.835-5.917,8.715a24.394,24.394,0,0,1-2.791,3.669,2.311,2.311,0,0,1-1.928.792h0c.212.23.412.474.64.687,1.359,1.271,2.766,2.495,4.079,3.811a51.961,51.961,0,0,1,5.495,6.538,40.993,40.993,0,0,0,3-4.166c3.1-4.727,6.208-9.451,8.342-14.729.8-1.991,1.665-3.958,2.352-6,.106-.315.147-.57-.13-.771a.553.553,0,0,0-.057-.041Z" transform="translate(-311.987 -94.676)"/><path class="u" d="M376.007,161.026a24.4,24.4,0,0,0,2.791-3.669c2.01-2.88,4.156-5.671,5.917-8.715.908-1.569,1.931-3.152,1.5-5.136-.01-.044.081-.111.125-.166h0a3.654,3.654,0,0,0-1.012-.686,2.8,2.8,0,0,0-2.882.9,38.024,38.024,0,0,0-3.4,4.045,52.8,52.8,0,0,0-6.134,10.822,2.568,2.568,0,0,0,1.172,3.395h0A2.311,2.311,0,0,0,376.007,161.026Z" transform="translate(-311.172 -94.217)"/></g><path class="k" d="M442.678,227.693a32.658,32.658,0,0,1-6.229,6.558l4.052-1.3a1.865,1.865,0,0,1,1.731.033c.691.564.237,1.678-.3,2.388a20.689,20.689,0,0,1-4.938,4.664,15.265,15.265,0,0,0,2.552-1.165,2.073,2.073,0,0,1,2.543.457,1.788,1.788,0,0,1-.163,1.869,6.536,6.536,0,0,1-1.422,1.368,17.778,17.778,0,0,0-5.044,6.644,3.845,3.845,0,0,1-1.639,2.232,2.21,2.21,0,0,1-1.869-.147,4,4,0,0,1-1.915-2.989c-.186-1.214.247-2.427.259-3.655.059-5.471,1.838-9.433,4.025-13.267C435.418,229.462,440.779,224.817,442.678,227.693Z" transform="translate(-332.076 -124.932)"/><path class="k" d="M498.221,304.286a2.316,2.316,0,0,0-1.979.341,67.729,67.729,0,0,1-15.3,6.726c-1.79.534-2.567-.8-3.582-2.148a57.11,57.11,0,0,1-5.655-8.821q-2.57-5.11-5.143-10.22-6.8-13.51-13.711-26.968c-2.007-3.893-4.184-7.159-4.54-11.612-.377-4.706.5-9.34.656-14.061.184-5.44-4.032-8.241-8.915-9.245a2.763,2.763,0,0,0-1.491-.011,2.882,2.882,0,0,0-1.252,1.163c-1.512,2.144-3.805,4.46-4.65,6.982-1.008,3.008-.453,7.282-.6,10.451a11.5,11.5,0,0,0,.32,4.16,16.726,16.726,0,0,0,2.434,3.965c2.036,2.968,3.145,6.458,4.228,9.89q2.441,7.739,4.882,15.478c1.172,3.715,1.678,7.629,2.987,11.227,1.594,4.381,3.209,8.751,4.763,13.147,3.1,8.78,6.2,17.58,10.128,26.035,1.109,2.388,2.8,4.157,4.3,6.272A20.73,20.73,0,0,0,469.534,341c1.052.884,2.233,1.4,3.218,2.257a7.569,7.569,0,0,0,7.095,1.438,168.262,168.262,0,0,0,17.539-7.306q4.341-2.1,8.557-4.452c.916-.511,3.157-1.268,3.746-2.1.712-1.006-.07-2.724-.426-3.737a87.908,87.908,0,0,0-4.889-10.955c-1.18-2.3-1.775-4.871-2.932-7.193C500.626,307.313,499.772,304.807,498.221,304.286Z" transform="translate(-332.817 -125.439)"/><g transform="translate(134.643 57.518)"><g transform="translate(0)"><path class="v" d="M620.89,502.038c4.936,13.225,10.93,26.022,16.062,39.151,4.3,10.993,8.506,22.145,10.316,33.922,1.271,8.278,2.087,16.626,3.144,24.938a42.472,42.472,0,0,0,2.026,9.022c2.616,7.3,3.945,14.915,5.364,22.5a17.081,17.081,0,0,1,.213,3.734c-.134,3.714-1.626,5.488-5.291,5.692-8.537.475-17.066-.16-25.593-.53-3.161-.138-6.318-.367-9.476-.553a13.971,13.971,0,0,0-5.237.055,11.475,11.475,0,0,1-3.737-.022c-7.69-.659-15.352-1.662-23.083-1.808-1.162-.022-2.382.109-3.369-.748a127.366,127.366,0,0,0-13.262-.3c-3.381,1.208-6.837.477-10.242.264-2.118-.134-4.236-.469-6.365-.424-5.373.114-10.685-.842-16.049-.873a2.808,2.808,0,0,1-2.214-.8c-5.077-.757-10.208-1.178-15.2-2.437-8.353-2.106-16.9-2.16-25.43-2.52-5.924-.25-6.429-1.161-4.989-6.845,3.014-11.9,5.373-23.954,8.41-35.854,10.325-40.443,22.588-80.229,39.579-118.44,1.759-3.957,2.971-8.141,5-11.984,5.015,1.887,10.282,1.137,15.445,1.5,4,.281,7.939-.406,11.895-.71,3.932-.3,7.773.4,11.658.552,7.412.292,14.379,3.057,21.675,4.012,2.487,1.956,3.908,4.669,5.2,7.459s2.4,5.643,3.545,8.488a2.767,2.767,0,0,1,.226,2.118c-.574.895-1.308.395-1.961.176a38.653,38.653,0,0,0-4.028-1.163c-.586-.128-1.217-.191-1.622.364-.468.642-.142,1.262.218,1.838a7.933,7.933,0,0,0,1.171,1.316c.456.461,1.172.9.9,1.628-.222.592-.976.563-1.558.626-4.066.438-7.866,1.85-11.681,3.2a8.426,8.426,0,0,0-3.369,2.045c-1.168,1.224-.9,2.1.7,2.486.285.069.585.065.876.107.579.085,1.308.072,1.535.675.283.751-.391,1.2-.9,1.6a15.926,15.926,0,0,0-2.593,2.388c-.594.74-1.355,1.571-.648,2.552.634.88,1.6.465,2.447.219.921-.268,1.749-.785,2.661-1.069,1.487-.465,1.909-.111,1.762,1.4-.3,3.066.444,3.8,3.462,2.907a73.467,73.467,0,0,1,15.59-2.89C616.42,500.833,618.767,500.694,620.89,502.038Z" transform="translate(-487.798 -266.46)"/><path class="w" d="M589.937,163.071c3.5-3.732,7.925-5.279,12.911-5.885,8.329-1.015,14.982,2.568,21.232,7.34,2.276,1.737,4.41,3.674,6.506,5.631a20.408,20.408,0,0,1,6.149,10.287c1.737,7.388,4.508,14.459,6.418,21.79a52.291,52.291,0,0,0,6.082,14.377,79.307,79.307,0,0,1,10.419,26.768c.674,3.46,1.66,6.86,2.5,10.287a20.605,20.605,0,0,1,1.318,11.226c-1.2,8.234-5,15.329-9.821,21.974a120.235,120.235,0,0,0-8.712,13.037,58.994,58.994,0,0,0-3.923,8.886c-2.315,6.71-5.786,12.565-11.809,16.624-4.131,2.784-7.032,6.722-9.692,10.784a12.333,12.333,0,0,1-10.562,5.793,21.171,21.171,0,0,0-7.9,1.844c-4.845,2.158-7.568,1.181-9.94-3.51a24.671,24.671,0,0,1-2.327-9.6,17.552,17.552,0,0,0-.9-5.211c-3.453-8.869-3.049-17.872-1.2-26.979a132.6,132.6,0,0,0,2.991-26.734c-.014-6.169-.132-12.357-.692-18.516a52.759,52.759,0,0,1,0-5.3,61.532,61.532,0,0,1,4.04-20.188,159.738,159.738,0,0,0,5.308-17.005A112.2,112.2,0,0,0,600.5,195.05c.428-5.516.689-11.028.713-16.546A73.63,73.63,0,0,0,600,164.438c-.408-2.151-.753-2.393-2.989-2.115a40.819,40.819,0,0,0-4.556.88C591.612,163.407,590.739,163.781,589.937,163.071Z" transform="translate(-523.347 -157.013)"/><path class="x" d="M568.433,299.846c.015,9.252,1.09,18.488.629,27.74a154.029,154.029,0,0,1-2.928,23.1c-1.739,8.527-2.393,17.029.908,25.372,1.406,3.553.955,7.4,1.856,11.036a21.836,21.836,0,0,0,2.233,5.95c1.7,2.89,3.554,4,6.567,2.705,4.273-1.842,8.7-2.437,13.228-2.97a8.322,8.322,0,0,0,5.964-3.817c3.654-5.377,7.7-10.346,13.155-14.086,4.092-2.8,6.532-7.066,8.115-11.6a86.211,86.211,0,0,1,12.677-23.348c4.6-6.139,8.5-12.633,10.359-20.277,1.18-4.843.333-9.451-.187-14.159,2.7,1.17,5.4,2.329,8.1,3.512,4.568,2.008,7.767,5.54,10.308,9.662,3.317,5.379,7.1,10.474,9.888,16.18a18.341,18.341,0,0,1,1.966,6.728c.154,2.077-1.42,2.9-2.97,3.679-.977,1.472-2.542,2.177-3.986,3.026-6.9,4.053-14,7.752-21.116,11.4a16.8,16.8,0,0,1-2.355,1.214c-3.024,1.3-4.5.708-5.728-2.3-.194-.476-.344-.969-.705-1.843-1.576,3.846-2.9,7.443-4.05,11.093q-4.723,14.956-9.676,29.839c-.912,2.751-1.689,5.657-3.95,7.76a49.323,49.323,0,0,1-10.316-1.965c-5.092-1.527-10.388-1.753-15.645-2.229-9.391-.851-18.735,1.23-28.133.363-2.451-.226-4.852-.245-6.77-2.059-2.439-4.664-3.648-9.784-5.208-14.75-.745-2.373-.366-5.1-.461-7.672a5.4,5.4,0,0,0-.732-3.347c-.7-4.179-1.155-8.39-1.7-12.59-.311-2.416-.442-2.5-2.637-1.334-2.426,1.285-3.05,1.119-4.409-1.167a28.088,28.088,0,0,0-2.066-6.693,146.478,146.478,0,0,0-9.438-20.783c-1.523-2.786-2.576-5.65-1.458-8.87a47.209,47.209,0,0,1,9.367-9,85.907,85.907,0,0,0,10.442-8.852,14.1,14.1,0,0,1,11.32-4.5c1.342.073,2.361-.644,3.565-.844a8.543,8.543,0,0,0,3.885.392C567.061,299.491,567.8,299.276,568.433,299.846Z" transform="translate(-502.201 -208.844)"/><path class="k" d="M559.587,737.453l34.869,1.831c-.677,3.884-1.392,7.762-2.022,11.653q-1.28,7.907-2.45,15.833c-.81,5.5-1.564,11.014-2.325,16.524-.87,6.306-1.762,12.61-2.566,18.925-.5,3.923-.865,7.864-1.273,11.8q-1.145,11.036-2.265,22.076c-.482,4.815-.918,9.634-1.375,14.452a3.436,3.436,0,0,1-2.31.507c-5.926-.114-11.851-.249-17.775-.437a2.742,2.742,0,0,1-2.39-.841c1.43-25.081,1.759-50.2,2.168-75.3.164-10.057-.269-20.132-.13-30.2C559.774,742.011,559.428,739.732,559.587,737.453Z" transform="translate(-513.288 -368.655)"/><path class="k" d="M636.419,740.811a173.734,173.734,0,0,1,18.4,1.154c4.222.428,8.468.616,12.7.926,1.446.106,2.937-.2,4.328.443-4.532.2-4.423.2-4.658,4.919-.359,7.21-.07,14.417.06,21.616.139,7.695.338,15.4.743,23.086.59,11.179,1.12,22.364,2.535,33.5.866,6.814,1.219,13.7,2.193,20.514.18,1.259,1.037,2.036,1.311,3.142a76.128,76.128,0,0,0-19.709,4.376c-.669.242-1.4.548-2.069-.076-.633-8.838-2.135-17.561-3.457-26.308-1.529-10.121-3.217-20.216-4.516-30.373-.992-7.759-2.4-15.465-3.568-23.2-1.325-8.82-2.946-17.6-3.6-26.512C636.931,745.609,636.651,743.212,636.419,740.811Z" transform="translate(-541.989 -369.879)"/><path class="k" d="M685.677,385.6c8.524-4.4,17.017-8.857,25.194-13.887.027,2.1,1.315,3.718,2.169,5.472,4.127,8.463,8.254,16.916,11.884,25.619,2.209,5.3.475,9.486-2.427,13.718-5.946,8.67-12.7,16.709-19.315,24.853-4.3,5.3-8.008,11.07-12.626,16.111-3.415,3.728-6.418,7.858-10.549,10.913a14.655,14.655,0,0,0-2.144,2.48c-7.21-1.214-14.157.175-21.049,2.117-.707.2-1.425.359-2.13.564a2.581,2.581,0,0,1-3.28-3.73c.164-.373.6-.7.2-1.294-1.59.607-3.2,1.241-4.823,1.831a1.846,1.846,0,0,1-2.381-.541,2.056,2.056,0,0,1,.154-2.475,23.21,23.21,0,0,1,4.838-4.556c-1.148-.028-1.912-.052-2.676-.063a1.918,1.918,0,0,1-1.967-1.132,2.027,2.027,0,0,1,.535-2.226,7.8,7.8,0,0,1,3.076-2.092c4.507-1.813,9.079-3.4,13.74-3.753-.613-.768-1.33-1.646-2.024-2.542a2.146,2.146,0,0,1-.417-2.636c.574-.874,1.471-.729,2.389-.536a24.139,24.139,0,0,1,4.819,1.525c.355.157.722.629,1.116.043a.991.991,0,0,1,.644-.1c3.831,1.364,5.873-.919,7.778-3.691,4.087-5.948,7.7-12.23,12.285-17.825A154.68,154.68,0,0,0,700.212,412.4c1.148-1.821,1.288-3.1-.07-4.894-4.992-6.576-9.43-13.537-13.818-20.527A2.926,2.926,0,0,1,685.677,385.6Z" transform="translate(-544.77 -235.296)"/><path class="k" d="M576.767,165.625c2.754-.4,5.389-1.379,8.191-1.587,1.682-.125,2.165.232,2.493,2.128a110.281,110.281,0,0,1,.918,26.35c-.477,7.081-.636,14.234-2.679,21.129-1.372,2.993-3.974,4.864-6.406,6.845A29.079,29.079,0,0,1,572.271,225c-4.361,2.39-8.914,2.242-13.459.792a7.752,7.752,0,0,1-5.493-5.8c-.686-3.389-1.933-6.693-1.563-10.243.908-1.151,2.31-1.127,3.548-1.468,2.31-.638,2.351-.81.809-2.556-1-1.13-2.373-1.967-2.845-3.524,1.848-3.076,1.354-5.79-1.186-8.261a10.343,10.343,0,0,1-2.769-4.922c-.538-2.11.509-4.123,2.572-4.394,5.591-.736,8.884-4.535,12.359-8.4C567.912,172.157,571.866,168.3,576.767,165.625Z" transform="translate(-510.177 -159.566)"/><path class="y" d="M544.26,914.233q9.815.247,19.63.5c.95.027,1.9.176,2.844.268.944,2.05.582,4.207.349,6.294-.883,7.893-1.912,15.77-2.827,23.66s-1.772,15.79-2.622,23.689a9.019,9.019,0,0,1-.786,3.195,2.137,2.137,0,0,1-2.179,1.226c-1.017-.091-1.475-.777-1.71-1.741a13.21,13.21,0,0,1-.238-3.514c.073-3,.146-6,.224-9.238-4.994,2.766-7.208,7.159-8.192,12.312-.907,4.749-1.165,5.159-5.834,6.11a153.186,153.186,0,0,1-15.969,1.971,14.179,14.179,0,0,1-3.3-.186,2.806,2.806,0,0,1-2.637-2.759,29.347,29.347,0,0,1,.231-8.139c.379-2.288,2.213-3.392,3.8-4.66,2.7-2.159,5.615-4.08,7.994-6.6,5.58-5.9,9.087-12.772,9.323-21.052q.273-9.61.443-19.223C542.82,915.25,543.129,914.5,544.26,914.233Z" transform="translate(-499.842 -433.113)"/><path class="y" d="M652.217,916.787a113.285,113.285,0,0,1,18.221-4.628c1.184-.183,2.456-.658,3.558.327,1.209,3.73.44,7.588.71,11.38.748,10.483,1.238,20.984,2.475,31.429a42.032,42.032,0,0,1,.165,4.847,2.292,2.292,0,0,1-2.144,2.394c-1.388.2-1.688-.966-1.879-1.986-.676-3.6-1.3-7.215-1.993-11.144-2.55,2.668-4.441,5.305-4.657,8.813a39.512,39.512,0,0,0,.164,7.053c.166,1.409.327,2.927-.515,4.087-5.131,7.062-11.4,12.651-20.126,14.845a17.008,17.008,0,0,1-3.726.37c-1.915.045-3.421-.443-3.874-2.715a16.605,16.605,0,0,0-1.6-4.328c-1.308-2.517-.522-4.618.869-6.77,2.714-4.2,6.028-7.968,8.583-12.285,4.932-8.336,5.852-17.413,5.205-26.807-.268-3.883-.5-7.768-1.157-11.619A2.9,2.9,0,0,1,652.217,916.787Z" transform="translate(-541.954 -432.256)"/><path class="w" d="M545.441,252.119c4.6,6.52,11.53,8.125,18.889,4.374,1.452-.4,1.424.783,1.429,1.545a90.229,90.229,0,0,1-.407,12.715c-.43,3.185-1.384,6.286-2,9.448a2.767,2.767,0,0,1-1,1.894,2.036,2.036,0,0,1-2.212,1.3,15.058,15.058,0,0,0-12.957,5.144c-4.416,4.742-10.051,8.076-14.806,12.445-1.459,1.341-2.454,3.128-4.164,4.212-.475.029-.659-.241-.641-.667.14-3.225-.057-6.464.386-9.677.321-10.291,2.151-20.052,8.818-28.448C540.24,262.042,542.756,257.006,545.441,252.119Z" transform="translate(-502.3 -191.691)"/><path class="w" d="M530.344,398.2l11.692-5.972c1.082,2,2.33,2.083,4.214.792,2.7-1.849,2.8-1.709,3.2,1.391.49,3.751.956,7.506,1.467,11.254a3.592,3.592,0,0,1-.341,1.909c-2.134,1.807-4.278,3.6-6.4,5.424-2.984,2.568-5.781,2.514-8.557-.35-3.061-3.157-4.143-7.2-4.828-11.394C530.633,400.243,530.5,399.223,530.344,398.2Z" transform="translate(-503.311 -242.629)"/><path class="z" d="M553.966,224.119l4.956,5.443c-1.853,1.4-4.329,1.271-6.468,2.1-1.566-.726-1.793-1.869-.649-3.04a1.732,1.732,0,0,0,.507-2.242C551.751,225,552.353,224.1,553.966,224.119Z" transform="translate(-510.874 -181.481)"/><path class="aa" d="M527.631,319.376c-.051,2.765-.115,5.53-.144,8.295-.007.7-.269,1.472.4,2.049-1,2.179-.437,4.217.518,6.244a6.789,6.789,0,0,1,1,2.609l-2.73,1.713c.063-2.611.118-4.849.172-7.086.131-3.749.253-7.5.4-11.247A4.7,4.7,0,0,1,527.631,319.376Z" transform="translate(-501.973 -216.214)"/><path class="k" d="M582.31,278.451a49.177,49.177,0,0,1,1.114-5.8c1.84-5.847,1.614-11.861,1.681-17.856.008-.7.424-1.709-.815-1.944,5.378-2.464,9.554-6.44,13.483-10.724a114.594,114.594,0,0,1-4.607,15.112c-2.6,7.059-4.509,14.243-4.674,21.812a18.093,18.093,0,0,1-4.755.357C583.046,279.364,582.4,279.346,582.31,278.451Z" transform="translate(-522.259 -188.047)"/><path class="r" d="M598.756,184.436a13.428,13.428,0,0,0-6.414-5.824c-.388-.171-.816-.513-.611-1.025.257-.64.863-.71,1.48-.665C595.852,177.113,599.053,181.142,598.756,184.436Z" transform="translate(-529.675 -162.268)"/><path class="ab" d="M589.211,193.419a1.909,1.909,0,0,1-1.832,2.044c-1.245.071-1.831-.734-1.831-1.931a1.876,1.876,0,0,1,1.97-2.109C588.687,191.38,589.234,192.038,589.211,193.419Z" transform="translate(-527.44 -167.559)"/></g></g></g></g></svg>