<svg xmlns="http://www.w3.org/2000/svg" xmlns:xlink="http://www.w3.org/1999/xlink" width="1920" height="1111" viewBox="0 0 1920 1111"><defs><style>.a{fill:none;}.b{fill:url(#a);}.c{opacity:0.4;mix-blend-mode:multiply;isolation:isolate;}.d{clip-path:url(#b);}.e,.h,.j,.k,.l,.m,.n,.o,.p,.q,.r,.s,.t,.u,.v,.w,.x,.y,.z{opacity:0.65;}.e{fill:url(#c);}.f{fill:#dcdcde;}.g{fill:#f6f7f7;}.h{fill:url(#d);}.i{fill:#e9e9eb;}.j{fill:url(#e);}.k{fill:url(#f);}.l{fill:url(#g);}.m{fill:url(#h);}.n{fill:url(#i);}.o{fill:url(#j);}.p{fill:url(#k);}.q{fill:url(#l);}.r{fill:url(#m);}.s{fill:url(#n);}.t{fill:url(#o);}.u{fill:url(#p);}.v{fill:url(#q);}.w{fill:url(#r);}.x{fill:url(#s);}.y{fill:url(#t);}.z{fill:url(#u);}.aa{opacity:0.67;fill:url(#v);}</style><linearGradient id="a" x1="0.891" y1="0.5" x2="0" y2="0.063" gradientUnits="objectBoundingBox"><stop offset="0" stop-color="#a020f0"/><stop offset="0" stop-color="#9d1fec"/><stop offset="1" stop-color="#8c1bd2"/></linearGradient><clipPath id="b"><rect class="a" width="1666" height="1111"/></clipPath><linearGradient id="c" x1="-16.72" y1="-16.7" x2="-17.226" y2="-17.576" gradientUnits="objectBoundingBox"><stop offset="0" stop-color="#211915"/><stop offset="1" stop-color="#5b5b5f"/></linearGradient><linearGradient id="d" x1="-16.719" y1="-16.702" x2="-17.225" y2="-17.577" xlink:href="#c"/><linearGradient id="e" x1="-16.719" y1="-16.697" x2="-17.225" y2="-17.573" xlink:href="#c"/><linearGradient id="f" x1="-16.718" y1="-16.7" x2="-17.223" y2="-17.576" xlink:href="#c"/><linearGradient id="g" x1="-16.718" y1="-16.696" x2="-17.223" y2="-17.572" xlink:href="#c"/><linearGradient id="h" x1="-16.717" y1="-16.702" x2="-17.222" y2="-17.577" xlink:href="#c"/><linearGradient id="i" x1="-16.716" y1="-16.697" x2="-17.222" y2="-17.573" xlink:href="#c"/><linearGradient id="j" x1="-16.716" y1="-16.693" x2="-17.222" y2="-17.569" xlink:href="#c"/><linearGradient id="k" x1="-16.715" y1="-16.7" x2="-17.221" y2="-17.576" xlink:href="#c"/><linearGradient id="l" x1="-16.715" y1="-16.696" x2="-17.221" y2="-17.572" xlink:href="#c"/><linearGradient id="m" x1="-16.715" y1="-16.692" x2="-17.221" y2="-17.568" xlink:href="#c"/><linearGradient id="n" x1="-16.714" y1="-16.702" x2="-17.22" y2="-17.577" xlink:href="#c"/><linearGradient id="o" x1="-16.714" y1="-16.697" x2="-17.219" y2="-17.573" xlink:href="#c"/><linearGradient id="p" x1="-16.714" y1="-16.693" x2="-17.219" y2="-17.569" xlink:href="#c"/><linearGradient id="q" x1="-16.714" y1="-16.69" x2="-17.219" y2="-17.566" xlink:href="#c"/><linearGradient id="r" x1="-16.712" y1="-16.7" x2="-17.218" y2="-17.576" xlink:href="#c"/><linearGradient id="s" x1="-16.713" y1="-16.696" x2="-17.218" y2="-17.572" xlink:href="#c"/><linearGradient id="t" x1="-16.712" y1="-16.692" x2="-17.218" y2="-17.568" xlink:href="#c"/><linearGradient id="u" x1="-16.712" y1="-16.688" x2="-17.218" y2="-17.564" xlink:href="#c"/><radialGradient id="v" cx="0.488" cy="0.497" r="0.414" gradientTransform="translate(-0.002 -0.002)" gradientUnits="objectBoundingBox"><stop offset="0" stop-color="#fff"/><stop offset="1" stop-color="#fff" stop-opacity="0"/></radialGradient></defs><g transform="translate(0 -2011)"><path class="b" d="M-11.146-99.534,1908.846-100V1011h-1920Z" transform="translate(11.154 2111)"/><g class="c" transform="translate(2861.84 3122) rotate(180)"><g class="d" transform="translate(941.84)"><rect class="a" width="1666" height="1111"/><g transform="translate(-95.045 -44.589)"><g transform="translate(95.096 828.371)"><g transform="translate(0 0)"><circle class="e" cx="94.705" cy="94.705" r="94.705" transform="translate(26.651 38.639) rotate(-11.771)"/><g transform="translate(0 42.506)"><rect class="f" width="139.054" height="139.054"/><rect class="g" width="139.054" height="139.054" transform="translate(139.024)"/></g></g></g><g transform="translate(0 552.915)"><g transform="translate(0 136.611)"><g transform="translate(0 19.767)"><path class="h" d="M1088.463,393.761c.111,62.586-42.234,94.779-94.537,94.87a94.7,94.7,0,1,1,94.537-94.87Z" transform="translate(-899.055 -299.224)"/><g transform="translate(95.044 25.178)"><rect class="g" width="139.054" height="139.053"/><rect class="i" width="139.054" height="139.053" transform="translate(138.956)"/></g></g><g transform="translate(373.056 0)"><circle class="j" cx="94.705" cy="94.705" r="94.705" transform="matrix(0.971, -0.237, 0.237, 0.971, 24.213, 44.942)"/><g transform="translate(0 44.945)"><rect class="f" width="139.053" height="139.053"/><rect class="g" width="139.053" height="139.053" transform="translate(139.024)"/></g></g></g><g transform="translate(95.096 0)"><circle class="k" cx="94.705" cy="94.705" r="94.705" transform="translate(26.651 38.639) rotate(-11.771)"/><g transform="translate(0 42.506)"><rect class="f" width="139.054" height="139.054"/><rect class="g" width="139.054" height="139.054" transform="translate(139.024)"/><rect class="i" width="139.054" height="139.054" transform="translate(277.98)"/></g><g transform="translate(417.036 17.328)"><path class="l" d="M1338.8,331.168c.111,62.586-42.234,94.777-94.537,94.87a94.705,94.705,0,1,1,94.537-94.87Z" transform="translate(-1105.415 -236.629)"/><g transform="translate(0 25.178)"><rect class="f" width="139.054" height="139.054"/><rect class="g" width="139.054" height="139.054" transform="translate(139.023)"/></g></g></g></g><g transform="translate(0 277.375)"><g transform="translate(0 136.694)"><g transform="translate(0 19.767)"><path class="m" d="M1088.463,269.761c.111,62.586-42.234,94.779-94.537,94.87a94.7,94.7,0,1,1,94.537-94.87Z" transform="translate(-899.055 -175.224)"/><g transform="translate(95.044 25.178)"><rect class="g" width="139.054" height="139.053"/><rect class="i" width="139.054" height="139.053" transform="translate(138.956)"/></g></g><g transform="translate(373.056 0)"><circle class="n" cx="94.705" cy="94.705" r="94.705" transform="matrix(0.971, -0.237, 0.237, 0.971, 24.213, 44.942)"/><g transform="translate(0 44.945)"><rect class="f" width="139.053" height="139.053"/><rect class="g" width="139.053" height="139.053" transform="translate(139.024)"/><rect class="i" width="139.054" height="139.053" transform="translate(277.98)"/></g></g><g transform="translate(790.087 16.285)"><circle class="o" cx="94.705" cy="94.705" r="94.705" transform="translate(40.498 7.095) rotate(-2.147)"/><g transform="translate(0 28.66)"><rect class="f" width="139.054" height="139.053"/><rect class="g" width="139.054" height="139.053" transform="translate(139.024)"/></g></g></g><g transform="translate(95.096 0)"><g transform="translate(0 0.083)"><circle class="p" cx="94.705" cy="94.705" r="94.705" transform="translate(26.651 38.639) rotate(-11.771)"/><g transform="translate(0 42.506)"><rect class="f" width="139.054" height="139.054"/><rect class="g" width="139.054" height="139.054" transform="translate(139.024)"/><rect class="i" width="139.054" height="139.054" transform="translate(277.98)"/></g></g><g transform="translate(417.036 17.411)"><path class="q" d="M1338.8,207.168c.111,62.586-42.234,94.777-94.537,94.87a94.705,94.705,0,1,1,94.537-94.87Z" transform="translate(-1105.415 -112.629)"/><g transform="translate(0 25.178)"><rect class="f" width="139.054" height="139.054"/><rect class="g" width="139.054" height="139.054" transform="translate(139.023)"/><rect class="i" width="139.054" height="139.054" transform="translate(277.98)"/></g></g><g transform="translate(834.067)"><circle class="r" cx="94.705" cy="94.705" r="94.705" transform="translate(26.568 38.85) rotate(-11.836)"/><g transform="translate(0 42.59)"><rect class="f" width="139.054" height="139.054"/><rect class="g" width="139.054" height="139.054" transform="translate(139.023)"/></g></g></g></g><g transform="translate(0 0)"><g transform="translate(0 138.612)"><g transform="translate(0 19.767)"><path class="s" d="M1088.463,145.761c.111,62.586-42.234,94.779-94.537,94.87a94.7,94.7,0,1,1,94.537-94.87Z" transform="translate(-899.055 -51.224)"/><g transform="translate(95.044 25.178)"><rect class="g" width="139.054" height="139.053"/><rect class="i" width="139.054" height="139.053" transform="translate(138.956)"/></g></g><g transform="translate(373.056 0)"><circle class="t" cx="94.705" cy="94.705" r="94.705" transform="matrix(0.971, -0.237, 0.237, 0.971, 24.213, 44.942)"/><g transform="translate(0 44.945)"><rect class="f" width="139.053" height="139.053"/><rect class="g" width="139.053" height="139.053" transform="translate(139.024)"/><rect class="i" width="139.054" height="139.053" transform="translate(277.98)"/></g></g><g transform="translate(790.087 16.285)"><circle class="u" cx="94.705" cy="94.705" r="94.705" transform="translate(40.498 7.095) rotate(-2.147)"/><g transform="translate(0 28.66)"><rect class="f" width="139.054" height="139.053"/><rect class="g" width="139.054" height="139.053" transform="translate(139.024)"/><rect class="i" width="139.054" height="139.053" transform="translate(277.98)"/></g></g><g transform="translate(1206.469 19.767)"><path class="v" d="M1651.369,145.761c.109,62.586-42.236,94.779-94.539,94.87a94.7,94.7,0,1,1,94.539-94.87Z" transform="translate(-1417.98 -51.224)"/><g transform="translate(0 25.178)"><rect class="f" width="139.054" height="139.053"/><rect class="g" width="139.054" height="139.053" transform="translate(139.023)"/></g></g></g><g transform="translate(95.096)"><g transform="translate(0 2.001)"><circle class="w" cx="94.705" cy="94.705" r="94.705" transform="translate(26.651 38.639) rotate(-11.771)"/><g transform="translate(0 42.506)"><rect class="f" width="139.054" height="139.054" transform="translate(0 0)"/><rect class="g" width="139.054" height="139.054" transform="translate(139.024 0)"/><rect class="i" width="139.054" height="139.054" transform="translate(277.98 0)"/></g></g><g transform="translate(417.036 19.329)"><path class="x" d="M1338.8,83.168c.111,62.586-42.234,94.777-94.537,94.87a94.705,94.705,0,1,1,94.537-94.87Z" transform="translate(-1105.415 11.371)"/><g transform="translate(0 25.178)"><rect class="f" width="139.054" height="139.054" transform="translate(0 0)"/><rect class="g" width="139.054" height="139.054" transform="translate(139.023 0)"/><rect class="i" width="139.054" height="139.054" transform="translate(277.98 0)"/></g></g><g transform="translate(834.067 1.918)"><circle class="y" cx="94.705" cy="94.705" r="94.705" transform="translate(26.568 38.85) rotate(-11.836)"/><g transform="translate(0 42.59)"><rect class="f" width="139.054" height="139.054" transform="translate(0 0)"/><rect class="g" width="139.054" height="139.054" transform="translate(139.023 0)"/><rect class="i" width="139.053" height="139.054" transform="translate(277.98 0)"/></g></g><g transform="translate(1250.449)"><circle class="z" cx="94.705" cy="94.705" r="94.705" transform="matrix(0.973, -0.231, 0.231, 0.973, 24.65, 43.79)"/><g transform="translate(0 44.508)"><rect class="f" width="139.053" height="139.054" transform="translate(0 0)"/><rect class="g" width="139.053" height="139.054" transform="translate(139.024 0)"/><rect class="i" width="139.054" height="139.054" transform="translate(277.98 0)"/></g></g></g></g></g><ellipse class="aa" cx="688.427" cy="690.592" rx="688.427" ry="690.592" transform="translate(-730.368 -811.986)"/></g></g></g></svg>