<svg xmlns="http://www.w3.org/2000/svg" xmlns:xlink="http://www.w3.org/1999/xlink" width="580.967" height="584.727" viewBox="0 0 580.967 584.727"><defs><style>.a,.p{fill:#0f4c81;}.a,.ae,.ah,.b,.c,.f,.l{stroke:#263238;}.a,.ae,.af,.ah,.b,.c,.f,.l,.m{stroke-linecap:round;stroke-linejoin:round;}.b,.e,.h,.n,.v{fill:#fff;}.c,.g{fill:#263238;}.ah,.d{fill:#941ddd;}.e{opacity:0.7;}.ae,.af,.f,.m{fill:none;}.h{opacity:0.5;}.i{fill:#7716b2;}.j{clip-path:url(#a);}.k{opacity:0.13;}.l{fill:#f73c65;}.af,.m{stroke:#fff;}.o{clip-path:url(#b);}.q{clip-path:url(#c);}.r{clip-path:url(#d);}.s{clip-path:url(#e);}.t{clip-path:url(#f);}.u{clip-path:url(#g);}.v{opacity:0.53;}.w{opacity:0.14;}.x{clip-path:url(#h);}.y{clip-path:url(#i);}.z{clip-path:url(#j);}.aa{clip-path:url(#k);}.ab{clip-path:url(#l);}.ac{clip-path:url(#m);}.ad{clip-path:url(#n);}.ae{stroke-width:2px;}.af{stroke-width:0.75px;}.ag{clip-path:url(#o);}</style><clipPath id="a"><path class="a" d="M254.2,232.419s-41.343-4.9-68.542,16.318-50.59,109.884-50.046,152.314,16.32,63.645,56.029,81.052,113.691,10.879,155.034-2.176,54.941-58.749,54.4-83.228-27.742-52.766-36.989-58.749-35.358-18.5-48.415-38.078S283.568,237.857,254.2,232.419Z" transform="translate(-135.598 -231.93)"/></clipPath><clipPath id="b"><path class="b" d="M216.07,235.379s-14.812,4.761-16.927,8.464-.53,29.625-.53,32.8,1.852-1.852,3.439-5.555,7.142-9.257,8.994-8.729,2.909,2.646,2.909,6.083,4.233,8.2,7.935,10.846,7.142,5.29,7.142,5.29,7.67-11.109,9.522-14.018,1.587-8.994,1.852-11.109,5.025,5.818,6.083,3.7-2.381-3.968-6.083-9.787-2.646-11.9-8.2-16.134S220.3,234.321,216.07,235.379Z" transform="translate(-198.041 -234.316)"/></clipPath><clipPath id="c"><path class="b" d="M204.751,307.892s-9.126-13.093-20.235-14.283-24.6,7.935-25,11.109-3.174,20.235-1.19,22.615,9.522,4.364,24.2-.4S203.164,316.224,204.751,307.892Z" transform="translate(-157.622 -293.502)"/></clipPath><clipPath id="d"><path class="b" d="M173.544,314.505s-14.89,5.91-15.474,17.458c-.324,6.389,10.316,9.125,21.425,9.125s26.98-13.887,37.3-19.838,34.122-19.838,36.9-21.028,12.3,1.984,16.267,3.174,11.506,1.19,11.506,1.19,5.555,8.729,8.332,8.729-5.951-13.093-7.142-15.87-20.632-9.126-23.012-9.126-57.927,13.887-66.259,17.061S173.544,314.505,173.544,314.505Z" transform="translate(-158.063 -288.319)"/></clipPath><clipPath id="e"><path class="b" d="M249.04,292.069l-42.5,30.061,97.207-2.777,32.584-26.887Z" transform="translate(-206.537 -292.069)"/></clipPath><clipPath id="f"><path class="b" d="M253.568,328.359S288.483,297.808,323,287.493s41.66-8.729,40.867,6.745S346.41,390.651,335.3,411.282s-25,58.324-24.6,65.466,13.887,28.17,25.79,35.709,10.713,16.664,3.174,18.251-16.267,4.364-42.057-12.3-36.5-40.47-34.915-46.421,18.251-13.887,25-25.79,17.854-56.34,18.648-76.575a120.232,120.232,0,0,1,7.935-37.3s-43.644,7.935-56.34,15.871Z" transform="translate(-253.568 -280.941)"/></clipPath><clipPath id="g"><path class="c" d="M287.69,446.2A29.94,29.94,0,0,1,286,448.8c6.12.686,14.95,2.855,22.317,9.3a72.57,72.57,0,0,1,5.426,5.247c7.605-10.208,16.156-42.452,25.809-55.715,24.941-34.264,23.519-97.921,24.312-113.395S357.52,277.177,323,287.493s-69.433,40.867-69.433,40.867l4.364,19.838c12.7-7.935,56.34-15.871,56.34-15.871a120.232,120.232,0,0,0-7.935,37.3C305.544,389.857,294.434,434.295,287.69,446.2Z" transform="translate(-253.568 -280.941)"/></clipPath><clipPath id="h"><path class="b" d="M194.614,325.777s-12.7,7.142-17.061,15.077,14.415,21.162,34.253,20.368,56.209-22.352,56.209-22.352.4,34.915,7.142,47.611,37.692,43.644,49.992,51.579,53.563,37.692,59.911,42.454S403.311,494,406.089,494.4s31.741-34.915,38.486-46.818,12.7-36.9,10.316-42.454-7.142-.793-11.9,3.174-48.405,32.931-52.373,34.915A43.547,43.547,0,0,1,383.87,446s-35.709-34.122-54.753-60.308-20.632-59.911-27.773-72.608-17.458-18.251-32.931-16.664S220.8,306.336,194.614,325.777Z" transform="translate(-176.917 -296.152)"/></clipPath><clipPath id="i"><path class="c" d="M383.246,443.726c-8.391-8.184-39.867-50.416-52.289-74.694-18.2-35.578-20.163-47.705-27.305-60.4s-17.927-13.685-33.4-12.1-43.16,4.46-77.129,23.726c0,0-14.258,7.751-18.622,15.686s11.524,27.916,39.146,25.393c19.771-1.808,56.209-22.352,56.209-22.352s.4,34.915,7.142,47.611,37.692,43.644,49.992,51.579c7.8,5.033,27.242,18.837,42.046,29.481C372.75,454.369,379.307,447.089,383.246,443.726Z" transform="translate(-173.784 -295.956)"/></clipPath><clipPath id="j"><path class="b" d="M362.312,408.206c6.745-11.9,12.7-36.9,10.316-42.454-1.379-3.217-3.56-2.965-6.074-1.417,1.67,7.423-.016,21.724-8.21,37.126-7.312,13.745-29.911,38.035-41.3,49.867,3.09,2.038,5.669,3.538,6.78,3.7C326.6,455.42,355.567,420.108,362.312,408.206Z" transform="translate(-317.046 -363.23)"/></clipPath><clipPath id="k"><path class="b" d="M333.172,443.415A52.3,52.3,0,0,1,322.6,433.9c-8.189-3.477-19.114-7.994-28.7-13.9-10.316-6.348-7.935-10.316-13.887-16.267-4.566-4.566-13.552-5.159-17.5-5.19a10.838,10.838,0,0,0-3.136,4.4c-1.587,5.951,9.125,29.757,34.915,46.421s34.518,13.887,42.057,12.3S345.075,450.953,333.172,443.415Z" transform="translate(-259.222 -398.549)"/></clipPath><clipPath id="l"><path class="c" d="M335.153,445.016c-10.316-5.951-31.344-9.919-44.834-19.045s-9.919-17.061-19.838-23.409c-4.558-2.915-8.357-2.228-11.138-.636-1.378,6.188,9.362,29.735,34.944,46.264,25.79,16.664,34.518,13.887,42.057,12.3,5.01-1.054,7.188-5.444,4.609-10.479A21.815,21.815,0,0,0,335.153,445.016Z" transform="translate(-259.226 -400.553)"/></clipPath><clipPath id="m"><path class="b" d="M206.721,222.206s1.849,20.044,2.627,26.367,2.554,24.518,4.379,30.535,11.766,16.478,12.73,14.058,5.88-18.76,3.909-28.478-2.568-18.164-1.341-20.6,5.618-5.25,5.618-5.25a156.3,156.3,0,0,1-14.9-8.68C212.671,225.413,207.7,220.049,206.721,222.206Z" transform="translate(-206.721 -221.715)"/></clipPath><clipPath id="n"><path class="b" d="M209.474,241.884s11.43,9.567,20.2,13.02,22.235,3.271,24.126-1.3-3.325-40.624-7.843-50.117-9.36-9.648-17.332-10.37-23.95,5.777-26.756,13.487.389,18.635,2.715,25.106A47.784,47.784,0,0,0,209.474,241.884Z" transform="translate(-200.773 -193.067)"/></clipPath><clipPath id="o"><path class="b" d="M213.273,219.762s-5.128-7.4-10.536-4.42-1.2,13.517,2.058,17.188,9.548-3.139,10.17-4.89" transform="translate(-200.14 -214.636)"/></clipPath></defs><g transform="translate(-1283.182 -3631.722)"><g transform="translate(1283.182 3698.12)"><g transform="translate(0 0)"><path class="d" d="M612.57,462.463c11.865-96.894-45.618-225.675-105.215-278.854-107.592-96-196.977-77.439-266.5-43.05S161.405,289.749,113.4,341.691,38.095,463.5,110.926,533.047s131.587,34.209,207.729,29.8,177.113,30.319,231.738.121C588.536,541.885,607.326,505.289,612.57,462.463Z" transform="translate(-66.182 -112.745)"/><path class="e" d="M612.57,462.463c11.865-96.894-45.618-225.675-105.215-278.854-107.592-96-196.977-77.439-266.5-43.05S161.405,289.749,113.4,341.691,38.095,463.5,110.926,533.047s131.587,34.209,207.729,29.8,177.113,30.319,231.738.121C588.536,541.885,607.326,505.289,612.57,462.463Z" transform="translate(-66.182 -112.745)"/></g></g><g transform="translate(1296.213 3632.222)"><g transform="translate(0)"><g transform="translate(0 55.215)"><line class="f" y1="356.99" transform="translate(232.051)"/><path class="f" d="M74.393,333.177h225.19L641.7,443.607" transform="translate(-74.393 27.344)"/></g><path class="g" d="M158.557,441.54h-15.6V184.335h32.1L161.2,134.327H119.631l-13.858,50.008h32.1V441.54h-15.6a15.229,15.229,0,0,0-15.221,14.947c0,.038-.014.076-.014.114,0,.017.006.033.006.051,0,.041-.006.083-.006.124h.022c.465,3.588,15.2,6.467,33.322,6.467s32.857-2.879,33.323-6.467h.083A15.236,15.236,0,0,0,158.557,441.54Z" transform="translate(-55.971 -34.176)"/><path class="c" d="M269.589,108.734V411.582L497.6,449.094V71.222Zm222.1,86.716-115.932,6.566V96.805L491.686,78.357ZM375.753,213.09l115.932-5.315V313.569l-115.932-5.42Zm-9.408,94.62-92.925-4.345V217.783l92.925-4.261Zm0-209.408V202.549l-92.925,5.263V113.088ZM273.42,313.336l92.925,5.347V422.014L273.42,407.227ZM375.753,423.512V319.224l115.932,6.67V441.96Z" transform="translate(40.197 -71.222)"/></g></g><g transform="translate(1322.282 3799.647)"><g transform="translate(0 0)"><g transform="translate(22.65)"><g transform="translate(0 281.873)"><ellipse class="d" cx="182.426" cy="56.839" rx="182.426" ry="56.839"/><ellipse class="h" cx="182.426" cy="56.839" rx="182.426" ry="56.839"/></g><g transform="translate(48.417 87.627)"><path class="i" d="M254.2,232.419s-41.343-4.9-68.542,16.318-50.59,109.884-50.046,152.314,16.32,63.645,56.029,81.052,113.691,10.879,155.034-2.176,54.941-58.749,54.4-83.228-27.742-52.766-36.989-58.749-35.358-18.5-48.415-38.078S283.568,237.857,254.2,232.419Z" transform="translate(-135.598 -231.93)"/><g class="j"><path class="k" d="M354.252,470.952c-15.631-2.111-34.169-6.355-48.2-14.874-29.625-17.986-37.031-51.844-47.612-64.541S228.813,379.9,220.35,366.145s5.29-115.325-19.045-121.673a55.678,55.678,0,0,0-15.183-2.166c-.154.119-.314.227-.468.346-27.2,21.216-50.59,109.884-50.046,152.314s16.32,63.645,56.029,81.052,113.691,10.879,155.034-2.176A70.053,70.053,0,0,0,354.252,470.952Z" transform="translate(-135.598 -225.845)"/></g><path class="f" d="M254.2,232.419s-41.343-4.9-68.542,16.318-50.59,109.884-50.046,152.314,16.32,63.645,56.029,81.052,113.691,10.879,155.034-2.176,54.941-58.749,54.4-83.228-27.742-52.766-36.989-58.749-35.358-18.5-48.415-38.078S283.568,237.857,254.2,232.419Z" transform="translate(-135.598 -231.93)"/></g><g transform="translate(83.37 91.414)"><g transform="translate(11.023 12.754)"><path class="l" d="M220.908,245.473s-26.98,5.158-31.741,9.919-24.6,79.352-24.6,79.352,8.729-2.381,16.664.794,8.729,11.506,9.522,15.474,1.19,14.283,1.19,14.283,80.2-7.164,97.261-11.132,43.025-5.791,43.025-5.791-43.872-98.932-50.617-102.5S246.7,241.9,242.73,242.7,220.908,245.473,220.908,245.473Z" transform="translate(-164.568 -242.353)"/><line class="m" y1="55.15" x2="6.745" transform="translate(29.757 39.624)"/><line class="m" y1="11.903" x2="9.126" transform="translate(34.915 42.401)"/><path class="m" d="M203.818,284.151s25.79-8.332,42.85-8.332" transform="translate(-141.526 -222.706)"/><path class="m" d="M219.795,266.736l-1.727,13.225s4.364,0,4.761,1.984-1.587,3.968-1.587,3.968,12.3,6.745,13.887,14.68" transform="translate(-133.161 -228.038)"/></g><g transform="translate(64.147)"><path class="n" d="M216.07,235.379s-14.812,4.761-16.927,8.464-.53,29.625-.53,32.8,1.852-1.852,3.439-5.555,7.142-9.257,8.994-8.729,2.909,2.646,2.909,6.083,4.233,8.2,7.935,10.846,7.142,5.29,7.142,5.29,7.67-11.109,9.522-14.018,1.587-8.994,1.852-11.109,5.025,5.818,6.083,3.7-2.381-3.968-6.083-9.787-2.646-11.9-8.2-16.134S220.3,234.321,216.07,235.379Z" transform="translate(-198.041 -234.316)"/><g class="o"><path class="p" d="M199.142,243.47c-1.412,2.471-1.176,14.831-.862,23.728,3.372-4.353,10.338-12.561,14.375-11.009,5.136,1.976,7.112,16.6,7.112,16.6L216.3,234.951l-.227.056S201.258,239.768,199.142,243.47Z" transform="translate(-198.041 -233.943)"/><path class="h" d="M199.142,243.47c-1.412,2.471-1.176,14.831-.862,23.728,3.372-4.353,10.338-12.561,14.375-11.009,5.136,1.976,7.112,16.6,7.112,16.6L216.3,234.951l-.227.056S201.258,239.768,199.142,243.47Z" transform="translate(-198.041 -233.943)"/></g><path class="f" d="M216.07,235.379s-14.812,4.761-16.927,8.464-.53,29.625-.53,32.8,1.852-1.852,3.439-5.555,7.142-9.257,8.994-8.729,2.909,2.646,2.909,6.083,4.233,8.2,7.935,10.846,7.142,5.29,7.142,5.29,7.67-11.109,9.522-14.018,1.587-8.994,1.852-11.109,5.025,5.818,6.083,3.7-2.381-3.968-6.083-9.787-2.646-11.9-8.2-16.134S220.3,234.321,216.07,235.379Z" transform="translate(-198.041 -234.316)"/></g><g transform="translate(0 93.931)"><path class="n" d="M204.751,307.892s-9.126-13.093-20.235-14.283-24.6,7.935-25,11.109-3.174,20.235-1.19,22.615,9.522,4.364,24.2-.4S203.164,316.224,204.751,307.892Z" transform="translate(-157.622 -293.502)"/><g class="q"><path class="p" d="M167.625,326.759s-3.161-9.089-1.581-12.25,7.9-7.9,11.855-12.644-9.254,2.682-9.879,0c-.5-2.16,6.958-6.467,9.9-8.07-9.237,1.766-18.075,8.192-18.4,10.752-.4,3.174-3.174,20.235-1.19,22.615,1.024,1.23,3.542,2.344,7.746,2.488C167.033,327.981,167.625,326.759,167.625,326.759Z" transform="translate(-157.622 -293.331)"/><path class="h" d="M167.625,326.759s-3.161-9.089-1.581-12.25,7.9-7.9,11.855-12.644-9.254,2.682-9.879,0c-.5-2.16,6.958-6.467,9.9-8.07-9.237,1.766-18.075,8.192-18.4,10.752-.4,3.174-3.174,20.235-1.19,22.615,1.024,1.23,3.542,2.344,7.746,2.488C167.033,327.981,167.625,326.759,167.625,326.759Z" transform="translate(-157.622 -293.331)"/></g><path class="f" d="M204.751,307.892s-9.126-13.093-20.235-14.283-24.6,7.935-25,11.109-3.174,20.235-1.19,22.615,9.522,4.364,24.2-.4S203.164,316.224,204.751,307.892Z" transform="translate(-157.622 -293.502)"/></g></g><g transform="translate(84.07 177.119)"><path class="n" d="M173.544,314.505s-14.89,5.91-15.474,17.458c-.324,6.389,10.316,9.125,21.425,9.125s26.98-13.887,37.3-19.838,34.122-19.838,36.9-21.028,12.3,1.984,16.267,3.174,11.506,1.19,11.506,1.19,5.555,8.729,8.332,8.729-5.951-13.093-7.142-15.87-20.632-9.126-23.012-9.126-57.927,13.887-66.259,17.061S173.544,314.505,173.544,314.505Z" transform="translate(-158.063 -288.319)"/><g class="r"><path class="p" d="M204.662,312.853c22.688-11.344,54.98-24.534,54.98-24.534-2.381,0-57.927,13.887-66.259,17.061s-19.838,9.126-19.838,9.126-14.89,5.91-15.474,17.458c-.324,6.389,10.316,9.125,21.425,9.125s26.98-13.887,37.3-19.838c1.751-1.009,3.895-2.25,6.251-3.615C207.885,319.585,187.633,321.368,204.662,312.853Z" transform="translate(-158.063 -288.319)"/><path class="h" d="M204.662,312.853c22.688-11.344,54.98-24.534,54.98-24.534-2.381,0-57.927,13.887-66.259,17.061s-19.838,9.126-19.838,9.126-14.89,5.91-15.474,17.458c-.324,6.389,10.316,9.125,21.425,9.125s26.98-13.887,37.3-19.838c1.751-1.009,3.895-2.25,6.251-3.615C207.885,319.585,187.633,321.368,204.662,312.853Z" transform="translate(-158.063 -288.319)"/></g><path class="f" d="M173.544,314.505s-14.89,5.91-15.474,17.458c-.324,6.389,10.316,9.125,21.425,9.125s26.98-13.887,37.3-19.838,34.122-19.838,36.9-21.028,12.3,1.984,16.267,3.174,11.506,1.19,11.506,1.19,5.555,8.729,8.332,8.729-5.951-13.093-7.142-15.87-20.632-9.126-23.012-9.126-57.927,13.887-66.259,17.061S173.544,314.505,173.544,314.505Z" transform="translate(-158.063 -288.319)"/></g><g transform="translate(161 111.756)"><path class="b" d="M245.408,250.44l-12.09,68.008,87.288.4,12.984-64.49a4.006,4.006,0,0,0-3.807-4.794l-80.308-2.425A4.007,4.007,0,0,0,245.408,250.44Z" transform="translate(-190.815 -247.134)"/><g transform="translate(0 71.315)"><path class="n" d="M249.04,292.069l-42.5,30.061,97.207-2.777,32.584-26.887Z" transform="translate(-206.537 -292.069)"/><g class="s"><path class="p" d="M249.04,292.069l-42.5,30.061,97.207-2.777,32.584-26.887Z" transform="translate(-206.537 -292.069)"/><path class="h" d="M249.04,292.069l-42.5,30.061,97.207-2.777,32.584-26.887Z" transform="translate(-206.537 -292.069)"/></g><path class="f" d="M249.04,292.069l-42.5,30.061,97.207-2.777,32.584-26.887Z" transform="translate(-206.537 -292.069)"/></g></g><g transform="translate(235.641 165.409)"><path class="n" d="M253.568,328.359S288.483,297.808,323,287.493s41.66-8.729,40.867,6.745S346.41,390.651,335.3,411.282s-25,58.324-24.6,65.466,13.887,28.17,25.79,35.709,10.713,16.664,3.174,18.251-16.267,4.364-42.057-12.3-36.5-40.47-34.915-46.421,18.251-13.887,25-25.79,17.854-56.34,18.648-76.575a120.232,120.232,0,0,1,7.935-37.3s-43.644,7.935-56.34,15.871Z" transform="translate(-253.568 -280.941)"/><g class="t"><path class="p" d="M253.568,328.359S288.483,297.808,323,287.493s41.66-8.729,40.867,6.745S346.41,390.651,335.3,411.282s-25,58.324-24.6,65.466,13.887,28.17,25.79,35.709,10.713,16.664,3.174,18.251-16.267,4.364-42.057-12.3-36.5-40.47-34.915-46.421,18.251-13.887,25-25.79,17.854-56.34,18.648-76.575a120.232,120.232,0,0,1,7.935-37.3s-43.644,7.935-56.34,15.871Z" transform="translate(-253.568 -280.941)"/><path class="h" d="M253.568,328.359S288.483,297.808,323,287.493s41.66-8.729,40.867,6.745S346.41,390.651,335.3,411.282s-25,58.324-24.6,65.466,13.887,28.17,25.79,35.709,10.713,16.664,3.174,18.251-16.267,4.364-42.057-12.3-36.5-40.47-34.915-46.421,18.251-13.887,25-25.79,17.854-56.34,18.648-76.575a120.232,120.232,0,0,1,7.935-37.3s-43.644,7.935-56.34,15.871Z" transform="translate(-253.568 -280.941)"/></g><path class="f" d="M253.568,328.359S288.483,297.808,323,287.493s41.66-8.729,40.867,6.745S346.41,390.651,335.3,411.282s-25,58.324-24.6,65.466,13.887,28.17,25.79,35.709,10.713,16.664,3.174,18.251-16.267,4.364-42.057-12.3-36.5-40.47-34.915-46.421,18.251-13.887,25-25.79,17.854-56.34,18.648-76.575a120.232,120.232,0,0,1,7.935-37.3s-43.644,7.935-56.34,15.871Z" transform="translate(-253.568 -280.941)"/></g><path class="b" d="M287.69,446.2A29.94,29.94,0,0,1,286,448.8c6.12.686,14.95,2.855,22.317,9.3a72.57,72.57,0,0,1,5.426,5.247c4.645-14.831,13.777-37.621,21.554-52.065,11.109-20.632,27.773-101.571,28.567-117.045S357.52,277.177,323,287.493s-69.433,40.867-69.433,40.867l4.364,19.838c12.7-7.935,56.34-15.871,56.34-15.871a120.232,120.232,0,0,0-7.935,37.3C305.544,389.857,294.434,434.295,287.69,446.2Z" transform="translate(-17.927 -115.531)"/><g transform="translate(235.641 165.409)"><path class="g" d="M287.69,446.2A29.94,29.94,0,0,1,286,448.8c6.12.686,14.95,2.855,22.317,9.3a72.57,72.57,0,0,1,5.426,5.247c7.605-10.208,16.156-42.452,25.809-55.715,24.941-34.264,23.519-97.921,24.312-113.395S357.52,277.177,323,287.493s-69.433,40.867-69.433,40.867l4.364,19.838c12.7-7.935,56.34-15.871,56.34-15.871a120.232,120.232,0,0,0-7.935,37.3C305.544,389.857,294.434,434.295,287.69,446.2Z" transform="translate(-253.568 -280.941)"/><g class="u"><path class="v" d="M287.69,446.2A29.94,29.94,0,0,1,286,448.8c6.12.686,14.95,2.855,22.317,9.3a72.57,72.57,0,0,1,5.426,5.247c7.605-10.208,16.156-42.452,25.809-55.715,24.941-34.264,23.519-97.921,24.312-113.395S357.52,277.177,323,287.493s-69.433,40.867-69.433,40.867l4.364,19.838c12.7-7.935,56.34-15.871,56.34-15.871a120.232,120.232,0,0,0-7.935,37.3C305.544,389.857,294.434,434.295,287.69,446.2Z" transform="translate(-253.568 -280.941)"/><path class="w" d="M347.1,288.292c-.627-5.634-61.995,20.338-87.875,31.554-3.591,2.861-5.653,4.661-5.653,4.661l4.364,19.838c12.7-7.935,56.34-15.87,56.34-15.87a120.231,120.231,0,0,0-7.935,37.3c-.793,20.235-11.9,64.672-18.648,76.575a29.681,29.681,0,0,1-1.685,2.6,45.219,45.219,0,0,1,12.657,3.282c9.611-20.321,19.8-43.879,24.629-62.333C332.019,352.568,347.89,295.434,347.1,288.292Z" transform="translate(-253.568 -277.089)"/><path class="f" d="M291.818,325.941s11.9-24.2,22.219-34.122" transform="translate(-231.113 -274.554)"/></g><path class="f" d="M287.69,446.2A29.94,29.94,0,0,1,286,448.8c6.12.686,14.95,2.855,22.317,9.3a72.57,72.57,0,0,1,5.426,5.247c7.605-10.208,16.156-42.452,25.809-55.715,24.941-34.264,23.519-97.921,24.312-113.395S357.52,277.177,323,287.493s-69.433,40.867-69.433,40.867l4.364,19.838c12.7-7.935,56.34-15.871,56.34-15.871a120.232,120.232,0,0,0-7.935,37.3C305.544,389.857,294.434,434.295,287.69,446.2Z" transform="translate(-253.568 -280.941)"/></g><path class="c" d="M220.662,338.693s19.584-.543,37.535-7.072-14.688-18.494-27.2-11.966A18.591,18.591,0,0,0,220.662,338.693Z" transform="translate(-37.33 -93.913)"/><g transform="translate(113.991 189.551)"><path class="n" d="M194.614,325.777s-12.7,7.142-17.061,15.077,14.415,21.162,34.253,20.368,56.209-22.352,56.209-22.352.4,34.915,7.142,47.611,37.692,43.644,49.992,51.579,53.563,37.692,59.911,42.454S403.311,494,406.089,494.4s31.741-34.915,38.486-46.818,12.7-36.9,10.316-42.454-7.142-.793-11.9,3.174-48.405,32.931-52.373,34.915A43.547,43.547,0,0,1,383.87,446s-35.709-34.122-54.753-60.308-20.632-59.911-27.773-72.608-17.458-18.251-32.931-16.664S220.8,306.336,194.614,325.777Z" transform="translate(-176.917 -296.152)"/><g class="x"><path class="p" d="M293.853,405.506c10.6,7.592,19.824,14.291,22.56,16.343,6.348,4.761,18.251,13.49,21.028,13.887.986.141,5.269-4.22,10.682-10.424l-45.437-29.229Z" transform="translate(-108.269 -237.488)"/><path class="h" d="M293.853,405.506c10.6,7.592,19.824,14.291,22.56,16.343,6.348,4.761,18.251,13.49,21.028,13.887.986.141,5.269-4.22,10.682-10.424l-45.437-29.229Z" transform="translate(-108.269 -237.488)"/></g><path class="f" d="M194.614,325.777s-12.7,7.142-17.061,15.077,14.415,21.162,34.253,20.368,56.209-22.352,56.209-22.352.4,34.915,7.142,47.611,37.692,43.644,49.992,51.579,53.563,37.692,59.911,42.454S403.311,494,406.089,494.4s31.741-34.915,38.486-46.818,12.7-36.9,10.316-42.454-7.142-.793-11.9,3.174-48.405,32.931-52.373,34.915A43.547,43.547,0,0,1,383.87,446s-35.709-34.122-54.753-60.308-20.632-59.911-27.773-72.608-17.458-18.251-32.931-16.664S220.8,306.336,194.614,325.777Z" transform="translate(-176.917 -296.152)"/></g><g transform="translate(109.019 189.239)"><path class="g" d="M383.246,443.726c-8.391-8.184-39.867-50.416-52.289-74.694-18.2-35.578-20.163-47.705-27.305-60.4s-17.927-13.685-33.4-12.1-43.16,4.46-77.129,23.726c0,0-14.258,7.751-18.622,15.686s11.524,27.916,39.146,25.393c19.771-1.808,56.209-22.352,56.209-22.352s.4,34.915,7.142,47.611,37.692,43.644,49.992,51.579c7.8,5.033,27.242,18.837,42.046,29.481C372.75,454.369,379.307,447.089,383.246,443.726Z" transform="translate(-173.784 -295.956)"/><g class="y"><path class="v" d="M383.246,443.726c-8.391-8.184-39.867-50.416-52.289-74.694-18.2-35.578-20.163-47.705-27.305-60.4s-17.927-13.685-33.4-12.1-43.16,4.46-77.129,23.726c0,0-14.258,7.751-18.622,15.686s11.524,27.916,39.146,25.393c19.771-1.808,56.209-22.352,56.209-22.352s.4,34.915,7.142,47.611,37.692,43.644,49.992,51.579c7.8,5.033,27.242,18.837,42.046,29.481C372.75,454.369,379.307,447.089,383.246,443.726Z" transform="translate(-173.784 -295.956)"/><path class="w" d="M303.308,384.29c-11.9-30.154-4.761-90.462-38.089-82.527-24.287,5.783-68.792,26.31-91.157,37.024,2.641,9.106,17.243,21.585,39.421,19.559,19.771-1.808,56.208-22.352,56.208-22.352s.4,34.915,7.142,47.611,37.692,43.644,49.992,51.579c7.8,5.032,27.242,18.837,42.046,29.481a56.265,56.265,0,0,1,5.542-13.3C344.862,429.542,309.952,401.122,303.308,384.29Z" transform="translate(-173.62 -292.965)"/><line class="f" x1="1.19" y1="20.632" transform="translate(94.881 22.399)"/></g><path class="f" d="M383.246,443.726c-8.391-8.184-39.867-50.416-52.289-74.694-18.2-35.578-20.163-47.705-27.305-60.4s-17.927-13.685-33.4-12.1-43.16,4.46-77.129,23.726c0,0-14.258,7.751-18.622,15.686s11.524,27.916,39.146,25.393c19.771-1.808,56.209-22.352,56.209-22.352s.4,34.915,7.142,47.611,37.692,43.644,49.992,51.579c7.8,5.033,27.242,18.837,42.046,29.481C372.75,454.369,379.307,447.089,383.246,443.726Z" transform="translate(-173.784 -295.956)"/></g><path class="c" d="M308.986,441.139c6.348,4.761,18.251,13.49,21.028,13.887s31.741-34.915,38.486-46.818,12.7-36.9,10.316-42.454-7.142-.793-11.9,3.174-48.405,32.931-52.373,34.915c-1.04.521-1.99.954-2.838,1.317-1.149,2.171-2.533,5.545-1.527,7.808,1.587,3.571,8.332,8.332,8.332,8.332l-12,18.007C307.573,440.09,308.422,440.717,308.986,441.139Z" transform="translate(13.149 -67.226)"/><g transform="translate(336.383 296.006)"><path class="n" d="M362.312,408.206c6.745-11.9,12.7-36.9,10.316-42.454-1.379-3.217-3.56-2.965-6.074-1.417,1.67,7.423-.016,21.724-8.21,37.126-7.312,13.745-29.911,38.035-41.3,49.867,3.09,2.038,5.669,3.538,6.78,3.7C326.6,455.42,355.567,420.108,362.312,408.206Z" transform="translate(-317.046 -363.23)"/><g class="z"><path class="p" d="M324.232,426.47a3.009,3.009,0,0,0,.338-.186c.036-.024.07-.041.108-.067.16-.106.338-.238.532-.389l.187-.154c.146-.119.3-.251.462-.392.086-.073.17-.146.259-.227.2-.176.4-.367.616-.568.124-.117.254-.243.384-.37.17-.163.341-.332.521-.509.148-.144.3-.3.449-.451s.29-.3.438-.448c.363-.375.741-.768,1.135-1.186l.181-.19c.23-.246.47-.5.709-.763l.279-.3c.83-.9,1.709-1.881,2.628-2.922l.073-.081q.479-.545.973-1.111l0,0-6.928-4.456c-3.95,4.287-7.613,8.149-10.535,11.184v0q.55.362,1.076.7l.148.094c.335.214.665.422.981.619l.019.011c.543.336,1.046.635,1.524.908.149.084.3.173.444.251s.3.16.444.238c.175.09.344.179.5.259.121.059.235.113.348.164.173.079.332.146.484.206.079.03.165.067.238.092a3.241,3.241,0,0,0,.57.154.664.664,0,0,0,.3-.059C324.159,426.5,324.2,426.486,324.232,426.47Z" transform="translate(-317.046 -334.779)"/><path class="h" d="M324.232,426.47a3.009,3.009,0,0,0,.338-.186c.036-.024.07-.041.108-.067.16-.106.338-.238.532-.389l.187-.154c.146-.119.3-.251.462-.392.086-.073.17-.146.259-.227.2-.176.4-.367.616-.568.124-.117.254-.243.384-.37.17-.163.341-.332.521-.509.148-.144.3-.3.449-.451s.29-.3.438-.448c.363-.375.741-.768,1.135-1.186l.181-.19c.23-.246.47-.5.709-.763l.279-.3c.83-.9,1.709-1.881,2.628-2.922l.073-.081q.479-.545.973-1.111l0,0-6.928-4.456c-3.95,4.287-7.613,8.149-10.535,11.184v0q.55.362,1.076.7l.148.094c.335.214.665.422.981.619l.019.011c.543.336,1.046.635,1.524.908.149.084.3.173.444.251s.3.16.444.238c.175.09.344.179.5.259.121.059.235.113.348.164.173.079.332.146.484.206.079.03.165.067.238.092a3.241,3.241,0,0,0,.57.154.664.664,0,0,0,.3-.059C324.159,426.5,324.2,426.486,324.232,426.47Z" transform="translate(-317.046 -334.779)"/></g><path class="f" d="M362.312,408.206c6.745-11.9,12.7-36.9,10.316-42.454-1.379-3.217-3.56-2.965-6.074-1.417,1.67,7.423-.016,21.724-8.21,37.126-7.312,13.745-29.911,38.035-41.3,49.867,3.09,2.038,5.669,3.538,6.78,3.7C326.6,455.42,355.567,420.108,362.312,408.206Z" transform="translate(-317.046 -363.23)"/></g><path class="c" d="M333.172,446.154c-11.9-7.539-25.393-28.567-25.79-35.709a12.3,12.3,0,0,1,.186-2.339,11.45,11.45,0,0,0-6.534,2.339s-8.729-7.935-15.474-12.3c-4.833-3.126-11.071-4.009-14.233-4.261-5.763,4.731-11.09,8.564-11.954,11.8-1.587,5.951,9.125,29.757,34.915,46.421s34.518,13.887,42.057,12.3S345.075,453.692,333.172,446.154Z" transform="translate(-14.608 -49.228)"/><path class="b" d="M257.818,401.819" transform="translate(-15.432 -44.57)"/><g transform="translate(244.613 352.06)"><path class="n" d="M333.172,443.415A52.3,52.3,0,0,1,322.6,433.9c-8.189-3.477-19.114-7.994-28.7-13.9-10.316-6.348-7.935-10.316-13.887-16.267-4.566-4.566-13.552-5.159-17.5-5.19a10.838,10.838,0,0,0-3.136,4.4c-1.587,5.951,9.125,29.757,34.915,46.421s34.518,13.887,42.057,12.3S345.075,450.953,333.172,443.415Z" transform="translate(-259.222 -398.549)"/><g class="aa"><path class="p" d="M333.172,443.415A52.3,52.3,0,0,1,322.6,433.9c-8.189-3.477-19.114-7.994-28.7-13.9-10.316-6.348-7.935-10.316-13.887-16.267-4.566-4.566-13.552-5.159-17.5-5.19a10.838,10.838,0,0,0-3.136,4.4c-1.587,5.951,9.125,29.757,34.915,46.421s34.518,13.887,42.057,12.3S345.075,450.953,333.172,443.415Z" transform="translate(-259.222 -398.549)"/><path class="h" d="M333.172,443.415A52.3,52.3,0,0,1,322.6,433.9c-8.189-3.477-19.114-7.994-28.7-13.9-10.316-6.348-7.935-10.316-13.887-16.267-4.566-4.566-13.552-5.159-17.5-5.19a10.838,10.838,0,0,0-3.136,4.4c-1.587,5.951,9.125,29.757,34.915,46.421s34.518,13.887,42.057,12.3S345.075,450.953,333.172,443.415Z" transform="translate(-259.222 -398.549)"/></g><path class="f" d="M333.172,443.415A52.3,52.3,0,0,1,322.6,433.9c-8.189-3.477-19.114-7.994-28.7-13.9-10.316-6.348-7.935-10.316-13.887-16.267-4.566-4.566-13.552-5.159-17.5-5.19a10.838,10.838,0,0,0-3.136,4.4c-1.587,5.951,9.125,29.757,34.915,46.421s34.518,13.887,42.057,12.3S345.075,450.953,333.172,443.415Z" transform="translate(-259.222 -398.549)"/></g><g transform="translate(244.621 355.241)"><path class="g" d="M335.153,445.016c-10.316-5.951-31.344-9.919-44.834-19.045s-9.919-17.061-19.838-23.409c-4.558-2.915-8.357-2.228-11.138-.636-1.378,6.188,9.362,29.735,34.944,46.264,25.79,16.664,34.518,13.887,42.057,12.3,5.01-1.054,7.188-5.444,4.609-10.479A21.815,21.815,0,0,0,335.153,445.016Z" transform="translate(-259.226 -400.553)"/><g class="ab"><path class="v" d="M335.153,445.016c-10.316-5.951-31.344-9.919-44.834-19.045s-9.919-17.061-19.838-23.409c-4.558-2.915-8.357-2.228-11.138-.636-1.378,6.188,9.362,29.735,34.944,46.264,25.79,16.664,34.518,13.887,42.057,12.3,5.01-1.054,7.188-5.444,4.609-10.479A21.815,21.815,0,0,0,335.153,445.016Z" transform="translate(-259.226 -400.553)"/></g><path class="f" d="M335.153,445.016c-10.316-5.951-31.344-9.919-44.834-19.045s-9.919-17.061-19.838-23.409c-4.558-2.915-8.357-2.228-11.138-.636-1.378,6.188,9.362,29.735,34.944,46.264,25.79,16.664,34.518,13.887,42.057,12.3,5.01-1.054,7.188-5.444,4.609-10.479A21.815,21.815,0,0,0,335.153,445.016Z" transform="translate(-259.226 -400.553)"/></g><g transform="translate(85.303 267.781)"><path class="b" d="M184.5,382.539s7.615-9.248,8.7-2.176-.544,20.127-5.985,25.023-8.159-2.72-8.159-2.72l3.263-4.352s2.72,5.44,4.9-3.265-4.352-7.615-4.352-7.615Z" transform="translate(-146.969 -326.51)"/><path class="b" d="M190.544,417.916c-4.507,3.338-19.191,3.338-23.7,0-9.538-7.061-7.9-41.176-7.9-41.176h39.46S200.082,410.855,190.544,417.916Z" transform="translate(-158.84 -327.073)"/><g transform="translate(4.396)"><path class="f" d="M161.61,388.419c0-4.3,3.977-4.3,3.977-8.592s-3.977-4.293-3.977-8.588,3.977-4.3,3.977-8.594-3.977-4.3-3.977-8.6,3.977-4.3,3.977-8.6" transform="translate(-161.61 -345.445)"/><path class="f" d="M170.2,384.6c0-3.261,3.976-3.261,3.976-6.523s-3.976-3.261-3.976-6.523,3.976-3.263,3.976-6.528-3.976-3.266-3.976-6.532,3.976-3.268,3.976-6.534" transform="translate(-156.567 -341.622)"/><path class="f" d="M179.648,388.419c0-4.3,3.976-4.3,3.976-8.592s-3.976-4.293-3.976-8.588,3.976-4.3,3.976-8.594-3.976-4.3-3.976-8.6,3.976-4.3,3.976-8.6" transform="translate(-151.021 -345.445)"/></g><path class="b" d="M198.368,377.4c0,.992-8.834,1.8-19.73,1.8s-19.73-.806-19.73-1.8,8.834-1.8,19.73-1.8S198.368,376.413,198.368,377.4Z" transform="translate(-158.801 -327.738)"/></g><g transform="translate(138.772)"><g transform="translate(22.52 71.414)"><path class="n" d="M206.721,222.206s1.849,20.044,2.627,26.367,2.554,24.518,4.379,30.535,11.766,16.478,12.73,14.058,5.88-18.76,3.909-28.478-2.568-18.164-1.341-20.6,5.618-5.25,5.618-5.25a156.3,156.3,0,0,1-14.9-8.68C212.671,225.413,207.7,220.049,206.721,222.206Z" transform="translate(-206.721 -221.715)"/><g class="ac"><path class="p" d="M232.188,239.773l-1.622-3.09c-2.914-1.6-6.978-3.933-10.825-6.52-7.07-4.75-12.046-10.114-13.02-7.957,0,0,1.849,20.044,2.627,26.367s2.554,24.518,4.379,30.535a20.05,20.05,0,0,0,2.542,4.948c-1.92-11.968.163-33.571.163-33.571Z" transform="translate(-206.721 -221.715)"/><path class="h" d="M232.188,239.773l-1.622-3.09c-2.914-1.6-6.978-3.933-10.825-6.52-7.07-4.75-12.046-10.114-13.02-7.957,0,0,1.849,20.044,2.627,26.367s2.554,24.518,4.379,30.535a20.05,20.05,0,0,0,2.542,4.948c-1.92-11.968.163-33.571.163-33.571Z" transform="translate(-206.721 -221.715)"/></g><path class="f" d="M206.721,222.206s1.849,20.044,2.627,26.367,2.554,24.518,4.379,30.535,11.766,16.478,12.73,14.058,5.88-18.76,3.909-28.478-2.568-18.164-1.341-20.6,5.618-5.25,5.618-5.25a156.3,156.3,0,0,1-14.9-8.68C212.671,225.413,207.7,220.049,206.721,222.206Z" transform="translate(-206.721 -221.715)"/></g><g transform="translate(13.079 25.95)"><path class="n" d="M209.474,241.884s11.43,9.567,20.2,13.02,22.235,3.271,24.126-1.3-3.325-40.624-7.843-50.117-9.36-9.648-17.332-10.37-23.95,5.777-26.756,13.487.389,18.635,2.715,25.106A47.784,47.784,0,0,0,209.474,241.884Z" transform="translate(-200.773 -193.067)"/><g class="ad"><path class="p" d="M230.008,241.464c-4.05-12.036-5.042-30.881-5.042-35.923,0-3.89,10.125-8.153,14.753-9.9-3.03-1.876-6.553-2.109-11.1-2.52-7.973-.724-23.95,5.777-26.756,13.487s.389,18.635,2.715,25.106a47.784,47.784,0,0,0,4.89,10.17s11.43,9.567,20.2,13.02c5.844,2.3,13.753,2.977,18.954,1.83C242.43,254.365,232.706,249.482,230.008,241.464Z" transform="translate(-200.773 -193.067)"/><path class="h" d="M230.008,241.464c-4.05-12.036-5.042-30.881-5.042-35.923,0-3.89,10.125-8.153,14.753-9.9-3.03-1.876-6.553-2.109-11.1-2.52-7.973-.724-23.95,5.777-26.756,13.487s.389,18.635,2.715,25.106a47.784,47.784,0,0,0,4.89,10.17s11.43,9.567,20.2,13.02c5.844,2.3,13.753,2.977,18.954,1.83C242.43,254.365,232.706,249.482,230.008,241.464Z" transform="translate(-200.773 -193.067)"/></g><path class="f" d="M209.474,241.884s11.43,9.567,20.2,13.02,22.235,3.271,24.126-1.3-3.325-40.624-7.843-50.117-9.36-9.648-17.332-10.37-23.95,5.777-26.756,13.487.389,18.635,2.715,25.106A47.784,47.784,0,0,0,209.474,241.884Z" transform="translate(-200.773 -193.067)"/><path class="f" d="M234.762,211.939c.179,4.571-2.685,8.394-6.4,8.541s-6.872-3.442-7.051-8.013,2.685-8.4,6.4-8.542S234.581,207.366,234.762,211.939Z" transform="translate(-188.72 -186.695)"/><path class="f" d="M238.127,210.888c.179,4.572-1.3,8.342-3.295,8.419s-3.768-3.563-3.947-8.134,1.3-8.34,3.295-8.419S237.948,206.317,238.127,210.888Z" transform="translate(-183.103 -187.381)"/><path class="b" d="M230.077,207.936s13.107,2.493,11.85,5.651-10.129,6.57-10.129,6.57" transform="translate(-183.569 -184.339)"/><path class="f" d="M229.571,207.361s.184-1.62,2.212-.582" transform="translate(-183.866 -185.222)"/><line class="f" x1="23.837" y2="9.379" transform="translate(8.386 26.518)"/><path class="ae" d="M221.276,206.248a6.046,6.046,0,0,1,5.94-3.585" transform="translate(-188.736 -187.439)"/><line class="ae" x1="3.669" y2="1.386" transform="translate(44.747 15.329)"/><path class="f" d="M224.136,219.606s4.715-1.244,7.473,1.558" transform="translate(-187.057 -177.649)"/><path class="g" d="M226.877,210.537c.217,1.592-.076,2.947-.654,3.026s-1.225-1.147-1.443-2.739.075-2.947.654-3.026S226.66,208.945,226.877,210.537Z" transform="translate(-186.721 -184.422)"/></g><path class="c" d="M216.224,238.628s-1.6,3.173,2.895,3.341,7.519-2.024,5.34-4.7-5.39-5.313-2.076-8.9,9.756-6.6,6.145-10.6-16.939-.37-13.612-3.609,18.735-6.608,25.659-6.191,19.84-4.925,22.671-11.944-1.132-19.989-10.428-19.278-16.228,8.929-20.352,9.437-12.592-3.995-19.684.084-7.335,15.485-7.97,16.893-10.224,3.511-11.912,13.249,2.761,17.505,6.731,21.839,5.763,5.991,5.763,5.991Z" transform="translate(-192.531 -176.716)"/><g transform="translate(3.484 11.639)"><path class="af" d="M194.741,204.651a7.515,7.515,0,0,0,1.025,4.22" transform="translate(-194.727 -171.956)"/><path class="af" d="M234.625,191.622s-3.471-7.572,5.363-7.572,10.1,11.043.947,15.144-29.029,5.048-39.756,9.783a13.928,13.928,0,0,0-5.463,3.869" transform="translate(-194.145 -184.05)"/><path class="af" d="M217.039,205.761c-3.173,1.135-7.286,2.723-11.473,4.667-8.834,4.1-6.94,8.2-6.94,8.2" transform="translate(-192.538 -171.305)"/><path class="af" d="M214.644,204.527s-.771.229-2.09.66" transform="translate(-184.261 -172.029)"/></g><g transform="translate(12.075 60.18)"><path class="n" d="M213.273,219.762s-5.128-7.4-10.536-4.42-1.2,13.517,2.058,17.188,9.548-3.139,10.17-4.89" transform="translate(-200.14 -214.636)"/><g class="ag"><path class="p" d="M213.273,219.762s-5.128-7.4-10.536-4.42-1.2,13.517,2.058,17.188,9.548-3.139,10.17-4.89" transform="translate(-200.14 -214.636)"/><path class="h" d="M213.273,219.762s-5.128-7.4-10.536-4.42-1.2,13.517,2.058,17.188,9.548-3.139,10.17-4.89" transform="translate(-200.14 -214.636)"/></g><path class="f" d="M213.273,219.762s-5.128-7.4-10.536-4.42-1.2,13.517,2.058,17.188,9.548-3.139,10.17-4.89" transform="translate(-200.14 -214.636)"/></g></g></g><g transform="translate(0 58.56)"><rect class="b" width="130.008" height="99.418" rx="5.12"/><path class="b" d="M171.177,265.136l76.178,19.838-76.178-37.3" transform="translate(-43.644 -193.618)"/><rect class="ah" width="30.59" height="80.299" transform="translate(10.515 9.559)"/><rect class="ah" width="3.824" height="80.299" transform="translate(119.437 9.559)"/><rect class="c" width="3.824" height="6.862" transform="translate(119.437 46.278)"/><line class="b" x2="60.224" transform="translate(50.665 11.471)"/><line class="b" x2="60.224" transform="translate(50.665 20.075)"/><line class="b" x2="60.224" transform="translate(50.665 28.678)"/><line class="b" x2="60.224" transform="translate(50.665 37.282)"/><line class="b" x2="60.224" transform="translate(50.665 58.312)"/><line class="b" x2="60.224" transform="translate(50.665 65.96)"/><line class="b" x2="60.224" transform="translate(50.665 73.607)"/><line class="b" x2="60.224" transform="translate(50.665 89.478)"/><line class="f" y1="80.299" x2="30.59" transform="translate(10.515 9.559)"/></g></g></g><g transform="translate(1756.651 3950.394)"><g transform="translate(0 0)"><g transform="translate(10.513 196.085)"><ellipse class="p" cx="26.545" cy="11.909" rx="26.545" ry="11.909"/><ellipse class="h" cx="26.545" cy="11.909" rx="26.545" ry="11.909"/></g><path class="g" d="M370.516,296.106c2.841,1.241,9.791,1.086,9.8,1.084.071,0-1.493-4.548-1.625-4.825-1.525-3.19-6.348-8.456-10.271-7.926a4.685,4.685,0,0,0-3.76,5.872C365.309,293.03,368.1,295.049,370.516,296.106Z" transform="translate(-364.515 -264.246)"/><path class="g" d="M461.332,279.907c-3.936-.424-8.613,4.971-10.052,8.2-.124.279-1.566,4.867-1.493,4.866h.084c-.746.846-1.535,1.762-2.376,2.779-1.539,1.892-3.263,4.042-4.979,6.51a83.251,83.251,0,0,0-5.163,8.226,61.092,61.092,0,0,0-4.41,9.927c-.014.041-.022.084-.036.125.021-1.159-.03-4.4-.062-4.653-.455-3.506-3.393-10.013-7.288-10.733a4.687,4.687,0,0,0-5.4,4.407c-.227,2.785,1.792,5.574,3.761,7.332,2.222,1.984,8.386,3.906,8.878,4.057a82.753,82.753,0,0,0-2.6,10.755c-.379,2.119-.694,4.264-.982,6.418-.014-1-.035-1.9-.051-2.025-.456-3.506-3.395-10.014-7.286-10.733a4.684,4.684,0,0,0-5.4,4.407c-.229,2.785,1.79,5.574,3.76,7.332,2,1.785,7.223,3.528,8.61,3.972-.1.827-.213,1.652-.311,2.481-.475,3.972-.932,7.94-1.5,11.817-.2,1.368-.446,2.7-.687,4.045-.014-.89-.033-1.641-.048-1.755-.455-3.506-3.393-10.014-7.288-10.733a4.686,4.686,0,0,0-5.4,4.407c-.229,2.785,1.792,5.574,3.761,7.332,1.908,1.7,6.713,3.355,8.361,3.89-.289,1.365-.575,2.733-.917,4.042-.252.889-.435,1.762-.74,2.641q-.424,1.314-.839,2.6c-.6,1.635-1.2,3.325-1.819,4.906-.422,1.1-.847,2.144-1.27,3.2.214-1.359.578-4.025.582-4.252a18.207,18.207,0,0,0-2.439-8.849,5.663,5.663,0,0,0-.065-1.036,4.687,4.687,0,0,0-5.729-3.976c-3.826,1.019-6.253,7.735-6.434,11.265-.011.208.125,2.481.235,3.914-.192-.832-.37-1.643-.578-2.5-.4-1.692-.852-3.369-1.33-5.175q-.39-1.3-.792-2.617c-.246-.881-.617-1.778-.924-2.677-.757-2.068-1.625-4.128-2.544-6.183,1.481-.356,6.721-1.692,8.826-3.307s4.317-4.237,4.3-7.031a4.684,4.684,0,0,0-5.059-4.8c-3.936.428-7.353,6.7-8.067,10.16-.044.216-.278,2.758-.378,4.156-.563-1.232-1.119-2.463-1.728-3.69-1.758-3.542-3.65-7.075-5.521-10.606-.573-1.081-1.132-2.165-1.695-3.249.528-.121,6.793-1.574,9.149-3.382,2.095-1.608,4.317-4.237,4.3-7.032a4.685,4.685,0,0,0-5.059-4.8c-3.936.428-7.353,6.7-8.067,10.16-.054.262-.384,3.92-.422,4.855-1.239-2.387-2.454-4.777-3.553-7.181a82.558,82.558,0,0,1-3.864-9.979c.246-.056,6.791-1.544,9.2-3.4,2.095-1.606,4.317-4.237,4.3-7.032a4.684,4.684,0,0,0-5.06-4.8c-3.937.427-7.353,6.7-8.067,10.16-.056.271-.409,4.207-.422,4.926-.06-.2-.146-.4-.2-.6a60.492,60.492,0,0,1-2-10.536c-.221-1.966-.322-3.858-.379-5.7,1.247-.152,6.94-.911,9.3-2.338,2.258-1.368,4.756-3.738,5.044-6.518a4.685,4.685,0,0,0-4.5-5.323c-3.96-.008-8.043,5.85-9.133,9.213-.06.183-.457,2.109-.727,3.515-.011-.832-.041-1.69-.038-2.488.006-2.993.2-5.734.382-8.161.117-1.379.252-2.623.389-3.787,1.146-.787,5.725-4.02,7.134-6.331,1.374-2.254,2.5-5.509,1.473-8.108a4.687,4.687,0,0,0-6.45-2.65c-3.517,1.819-4.442,8.9-3.861,12.387.051.3,1.379,4.923,1.439,4.883l.07-.048c-.156,1.116-.308,2.315-.449,3.628-.24,2.428-.49,5.172-.56,8.178a83.078,83.078,0,0,0,.232,9.708,61.058,61.058,0,0,0,1.8,10.713c.011.041.029.084.04.124-.624-.978-2.457-3.655-2.62-3.845-2.314-2.673-8.354-6.48-12-4.933a4.688,4.688,0,0,0-2.076,6.658c1.347,2.449,4.571,3.66,7.183,4.041,2.947.428,9.149-1.37,9.641-1.514a83.231,83.231,0,0,0,3.761,10.408c.854,1.974,1.774,3.937,2.722,5.894-.565-.828-1.078-1.566-1.16-1.662-2.312-2.674-8.354-6.48-12-4.933a4.685,4.685,0,0,0-2.076,6.658c1.346,2.449,4.569,3.66,7.181,4.041,2.652.387,7.97-1.041,9.373-1.436.371.746.733,1.5,1.108,2.241,1.8,3.576,3.6,7.137,5.269,10.682.589,1.251,1.121,2.5,1.659,3.753-.5-.735-.933-1.351-1.008-1.438-2.314-2.673-8.354-6.48-12-4.933a4.687,4.687,0,0,0-2.077,6.658c1.347,2.449,4.569,3.66,7.183,4.041,2.53.368,7.451-.9,9.119-1.368.511,1.3,1.027,2.6,1.465,3.877.279.881.609,1.711.84,2.611l.735,2.635c.406,1.692.836,3.434,1.19,5.094.256,1.152.478,2.257.7,3.368-.57-1.251-1.738-3.676-1.858-3.868-1.881-2.993-7.277-7.67-11.114-6.694a4.688,4.688,0,0,0-3.06,6.266c.96,2.625,3.961,4.31,6.486,5.083,2.78.849,8.937.073,9.7-.03.37,1.839.711,3.633,1,5.329,1.038,5.878,1.677,10.816,2.076,14.271.072.613.132,1.162.186,1.678H395.841l3.831,74.756A10.686,10.686,0,0,0,410.343,485.3h0a10.684,10.684,0,0,0,10.671-10.138l3.831-74.756h-11.1c.081-.17.159-.329.246-.509,1.524-3.172,3.634-7.734,5.917-13.314.725-1.762,1.465-3.658,2.206-5.613.744.156,6.839,1.393,9.678.752,2.576-.581,5.7-2.039,6.848-4.585a4.685,4.685,0,0,0-2.585-6.475c-3.753-1.26-9.481,3-11.581,5.847-.124.167-1.263,2.138-1.963,3.393.3-.8.6-1.573.9-2.4.6-1.633,1.149-3.279,1.746-5.05q.39-1.3.784-2.62c.281-.868.467-1.822.706-2.741.509-2.144.922-4.341,1.29-6.562,1.43.521,6.539,2.3,9.184,2.112s5.939-1.154,7.464-3.5a4.686,4.686,0,0,0-1.574-6.793c-3.52-1.814-9.827,1.531-12.333,4.025-.157.156-1.754,2.147-2.611,3.258.211-1.336.427-2.671.6-4.031.487-3.925.859-7.913,1.247-11.892.117-1.217.249-2.43.378-3.645.506.192,6.532,2.435,9.5,2.227,2.634-.184,5.939-1.152,7.464-3.495A4.687,4.687,0,0,0,445.67,332c-3.52-1.814-9.829,1.532-12.333,4.025-.189.187-2.484,3.057-3.031,3.815.283-2.676.59-5.337,1-7.95a82.359,82.359,0,0,1,2.282-10.455c.236.089,6.515,2.458,9.551,2.246,2.633-.186,5.937-1.152,7.462-3.495a4.685,4.685,0,0,0-1.574-6.793c-3.519-1.816-9.827,1.53-12.333,4.025-.2.2-2.661,3.284-3.069,3.876.059-.2.1-.411.157-.609a60.443,60.443,0,0,1,4.142-9.894c.9-1.762,1.86-3.395,2.83-4.964,1.124.562,6.29,3.069,9.043,3.18,2.638.1,6.028-.494,7.8-2.654a4.685,4.685,0,0,0-.819-6.924c-3.3-2.192-9.937.441-12.7,2.646-.151.119-1.544,1.506-2.546,2.531.449-.7.9-1.433,1.341-2.1,1.655-2.495,3.326-4.677,4.821-6.6.859-1.086,1.657-2.051,2.412-2.944,1.39-.025,6.993-.2,9.443-1.346,2.388-1.122,5.123-3.215,5.7-5.95A4.687,4.687,0,0,0,461.332,279.907ZM417.747,385.668c-2.379,5.475-4.567,9.946-6.14,13.047-.317.625-.6,1.179-.867,1.689h-.263c-.078-.6-.165-1.266-.267-2.011-.481-3.487-1.235-8.456-2.411-14.369-.367-1.868-.8-3.858-1.255-5.9a51.184,51.184,0,0,0,5.413-2.546c2.027,2.193,7.219,4.763,7.891,5.088C419.142,382.407,418.437,384.091,417.747,385.668Z" transform="translate(-364.298 -271.702)"/><path class="g" d="M416.14,299.265c.06.04,1.263-4.618,1.306-4.92.487-3.5-.628-10.554-4.195-12.277a4.687,4.687,0,0,0-6.375,2.823c-.955,2.627.257,5.85,1.692,8.065C410.252,295.56,416.135,299.262,416.14,299.265Z" transform="translate(-339.847 -265.877)"/></g></g></g></svg>