<svg xmlns="http://www.w3.org/2000/svg" width="30.192" height="30.192" viewBox="0 0 30.192 30.192"><defs><style>.a{fill:#1e1756;}</style></defs><path class="a" d="M36.708,2.027a6.941,6.941,0,0,0-9.8,0L22,6.929a1.066,1.066,0,0,0,1.508,1.508l4.9-4.9A4.8,4.8,0,0,1,35.2,10.323L28.79,16.733a4.806,4.806,0,0,1-6.788,0,1.066,1.066,0,1,0-1.508,1.508,6.94,6.94,0,0,0,9.8,0l6.41-6.41a6.949,6.949,0,0,0,0-9.8Z" transform="translate(-8.54 -0.001)"/><path class="a" d="M14.47,29.885l-4.148,4.148a4.8,4.8,0,0,1-6.787-6.787l6.033-6.033a4.817,4.817,0,0,1,6.787,0A1.066,1.066,0,0,0,17.863,19.7a6.941,6.941,0,0,0-9.8,0L2.026,25.738a6.932,6.932,0,0,0,9.8,9.8l4.148-4.148a1.066,1.066,0,0,0-1.508-1.508Z" transform="translate(-0.003 -7.373)"/></svg>