<?xml version="1.0" encoding="UTF-8" standalone="no"?>
<!DOCTYPE svg PUBLIC "-//W3C//DTD SVG 1.1//EN" "http://www.w3.org/Graphics/SVG/1.1/DTD/svg11.dtd">
<svg version="1.1" xmlns="http://www.w3.org/2000/svg" xmlns:xlink="http://www.w3.org/1999/xlink" preserveAspectRatio="xMidYMid meet" viewBox="0 0 640 640" width="1350" height="824"><defs><path d="M316.15 77.71C509.86 69.07 635.27 114.4 764.19 214.99C909.15 278.32 795.47 242.2 1026.74 283.71C1019.39 350.96 943.21 723.92 943.21 723.92C936.83 723.54 885.76 720.5 879.38 720.12C879.38 720.12 662.59 618.9 271.04 577.16C-220.35 493.2 -248.88 364.11 -248.88 364.11C-241.94 274.5 -221.1 5.69 -214.16 -83.92C-108.1 -51.59 -45.75 92.67 316.15 77.71Z" id="afGJFp0wj"></path><path d="M349.1 81.14C554.1 72.32 686.82 118.61 823.26 221.34C976.67 286.01 856.36 249.13 1101.12 291.52C1093.34 360.2 1012.72 741.08 1012.72 741.08C1005.97 740.69 951.92 737.59 945.17 737.2C945.17 737.2 715.74 633.83 301.36 591.2C-218.69 505.46 -248.88 373.63 -248.88 373.63C-241.54 282.11 -219.48 7.59 -212.14 -83.92C-99.89 -50.91 -33.91 96.42 349.1 81.14Z" id="c1oVCkBoTP"></path><path d="M287.15 108.21C520.11 101.51 544.2 152.3 623.14 195.78C684.47 234.55 621.76 245.53 790.95 270.93C788.28 328.73 768.58 640 768.58 640C763.94 639.95 726.83 639.58 722.19 639.54C722.19 639.54 560.12 550.93 281.04 548.17C-76.65 506.12 -109.28 384.42 -109.28 384.42C-107.8 307.54 -103.37 76.88 -101.89 0C-24.08 21.64 70.3 137.21 287.15 108.21Z" id="a29FizJaGQ"></path><path d="M287.15 108.21C520.11 101.51 544.2 152.3 623.14 195.78C684.47 234.55 621.76 245.53 790.95 270.93C788.28 328.73 768.58 640 768.58 640C763.94 639.95 726.83 639.58 722.19 639.54C722.19 639.54 560.12 550.93 281.04 548.17C-76.65 506.12 -109.28 384.42 -109.28 384.42C-107.8 307.54 -103.37 76.88 -101.89 0C-24.08 21.64 70.3 137.21 287.15 108.21Z" id="b1DxRsOkBo"></path></defs><g><g><g><use xlink:href="#afGJFp0wj" opacity="1" fill="#f7ecff" fill-opacity="1"></use><g><use xlink:href="#afGJFp0wj" opacity="1" fill-opacity="0" stroke="#000000" stroke-width="1" stroke-opacity="0"></use></g></g><g><use xlink:href="#c1oVCkBoTP" opacity="1" fill="#000000" fill-opacity="0"></use><g><use xlink:href="#c1oVCkBoTP" opacity="1" fill-opacity="0" stroke="#000000" stroke-width="1" stroke-opacity="0"></use></g></g><g><use xlink:href="#a29FizJaGQ" opacity="1" fill="#e8c4ff" fill-opacity="1"></use><g><use xlink:href="#a29FizJaGQ" opacity="1" fill-opacity="0" stroke="#000000" stroke-width="1" stroke-opacity="0"></use></g></g><g><use xlink:href="#b1DxRsOkBo" opacity="1" fill="#000000" fill-opacity="0"></use><g><use xlink:href="#b1DxRsOkBo" opacity="1" fill-opacity="0" stroke="#000000" stroke-width="1" stroke-opacity="0"></use></g></g></g></g></svg>